<?xml version="1.0" standalone="no"?>
<!DOCTYPE svg PUBLIC "-//W3C//DTD SVG 1.1//EN" "http://www.w3.org/Graphics/SVG/1.1/DTD/svg11.dtd" >
<svg xmlns="http://www.w3.org/2000/svg" xmlns:xlink="http://www.w3.org/1999/xlink" version="1.1">
<metadata>
Created by FontForge 20170731 at Fri Mar  2 10:31:27 2007
 By Aleksey,,,
Copyright (c) 2006 by Alstom. All rights reserved.
</metadata>
<defs>
<font id="Alstom" horiz-adv-x="500" >
  <font-face 
    font-family="Alstom"
    font-weight="400"
    font-stretch="normal"
    units-per-em="1000"
    panose-1="2 0 5 3 2 0 0 2 0 4"
    ascent="800"
    descent="-200"
    x-height="479"
    cap-height="666"
    bbox="-68 -201 890 1023"
    underline-thickness="50"
    underline-position="-150"
    unicode-range="U+0020-FB02"
  />
<missing-glyph 
d="M431 666v-666h-362v666h362zM116 45h268v576h-268v-576z" />
    <glyph glyph-name="fi" unicode="fi" horiz-adv-x="485" 
d="M415 0h-78v413h-185v-413h-78v413h-67v66h67v78q0 45 14.5 76.5t38.5 51.5t55.5 29.5t65.5 9.5q47 0 88 -12.5t80 -32.5l-19 -71q-30 17 -65 31t-78 14q-20 0 -38.5 -5.5t-32.5 -17.5t-22.5 -31.5t-8.5 -47.5v-72h263v-479z" />
    <glyph glyph-name="fl" unicode="fl" horiz-adv-x="489" 
d="M415 0h-78v633q-20 9 -41.5 14.5t-41.5 5.5q-43 0 -72.5 -23.5t-29.5 -78.5v-72h107l-7 -66h-100v-413h-78v413h-67v66h67v78q0 45 14 76.5t38 51.5t55.5 29.5t65.5 9.5q45 0 87.5 -11.5t80.5 -31.5v-681z" />
    <glyph glyph-name=".notdef" 
d="M431 666v-666h-362v666h362zM116 45h268v576h-268v-576z" />
    <glyph glyph-name=".null" horiz-adv-x="0" 
 />
    <glyph glyph-name="nonmarkingreturn" horiz-adv-x="242" 
 />
    <glyph glyph-name="space" unicode=" " horiz-adv-x="242" 
 />
    <glyph glyph-name="space" unicode="&#xa0;" horiz-adv-x="242" 
 />
    <glyph glyph-name="exclam" unicode="!" horiz-adv-x="272" 
d="M174 164h-77l-2 502h81zM80 44q0 26 16.5 39t39.5 13t39 -13t16 -39t-16 -39t-39 -13t-39.5 13t-16.5 39z" />
    <glyph glyph-name="quotedbl" unicode="&#x22;" horiz-adv-x="363" 
d="M278 555h-67l-5 159h77zM152 555h-67l-5 159h77z" />
    <glyph glyph-name="numbersign" unicode="#" 
d="M45 409h93v167h58v-167h107v167h58v-167h93v-56h-93v-130h93v-56h-93v-167h-58v167h-107v-167h-58v167h-93v56h93v130h-93v56zM196 223h107v130h-107v-130z" />
    <glyph glyph-name="dollar" unicode="$" 
d="M247 50q51 0 80 20.5t29 53.5v16q0 27 -36.5 42t-99.5 29q-79 17 -112.5 45.5t-33.5 85.5v22q0 29 12 51t32.5 37.5t48 24t57.5 11.5v88h56v-88q41 -2 72 -11t60 -21q-6 -16 -11 -31t-10 -31q-25 11 -60.5 21t-71.5 10q-48 0 -79 -17t-31 -49v-18q0 -18 9 -28.5t26.5 -18
t42.5 -13.5t58 -14q40 -10 68 -20t45 -24t25 -33t8 -46v-15q0 -69 -41.5 -100.5t-109.5 -36.5v-84h-56v82q-44 2 -86 11.5t-75 26.5l24 58q13 -7 31.5 -13.5t40 -11.5t44.5 -8t44 -3z" />
    <glyph glyph-name="percent" unicode="%" 
d="M103 99l-35 31l301 321l39 -32zM139 352q23 0 32 15t9 45v70q0 29 -9 44.5t-32 15.5t-32 -15.5t-9 -44.5v-70q0 -30 9 -45t32 -15zM139 307q-47 0 -70 28.5t-23 77.5v68q0 49 23 77.5t70 28.5q46 0 69.5 -28.5t23.5 -77.5v-68q0 -49 -23.5 -77.5t-69.5 -28.5zM360 35
q23 0 32.5 15t9.5 45v70q0 29 -9.5 44.5t-32.5 15.5q-22 0 -31.5 -15.5t-9.5 -44.5v-70q0 -60 41 -60zM360 -10q-46 0 -69.5 28.5t-23.5 77.5v68q0 49 23.5 77.5t69.5 28.5q47 0 70.5 -28.5t23.5 -77.5v-68q0 -49 -23.5 -77.5t-70.5 -28.5z" />
    <glyph glyph-name="ampersand" unicode="&#x26;" horiz-adv-x="523" 
d="M105 498q0 33 12 58.5t31.5 42t45.5 25t55 8.5q28 0 54.5 -8.5t46.5 -25t32 -41t12 -57.5q0 -55 -31 -96t-74 -72l127 -165q29 44 47 109q15 -6 29.5 -11.5t29.5 -12.5q-21 -84 -64 -145l84 -107h-94l-43 56q-28 -29 -67.5 -47.5t-91.5 -18.5q-88 0 -137 39.5t-49 125.5
v29q0 30 10 52.5t26.5 41t38.5 34.5t46 33q-12 16 -25.5 33.5t-25 37t-18.5 40.5t-7 42zM228 294q-38 -26 -62.5 -50t-24.5 -56v-52q0 -40 29.5 -59.5t79.5 -19.5q35 0 64.5 15t52.5 41q-35 45 -69.5 90.5t-69.5 90.5zM241 378q32 25 53 53.5t21 67.5q0 38 -20 54t-45 16
t-45.5 -16t-20.5 -54q0 -35 19 -65t38 -56z" />
    <glyph glyph-name="quotesingle" unicode="'" horiz-adv-x="237" 
d="M152 555h-67l-5 159h77z" />
    <glyph glyph-name="parenleft" unicode="(" horiz-adv-x="331" 
d="M164 280q0 -74 13.5 -143t36 -128.5t53 -107t63.5 -78.5h-88q-79 90 -118 211t-39 250q0 64 10 127t29.5 121.5t49 111t68.5 96.5h88q-33 -31 -63.5 -79t-53 -108t-36 -129.5t-13.5 -143.5z" />
    <glyph glyph-name="parenright" unicode=")" horiz-adv-x="337" 
d="M173 280q0 74 -13.5 143.5t-36 129.5t-53 108t-63.5 79h88q39 -44 68.5 -96.5t49 -111t29.5 -121.5t10 -127q0 -129 -39 -250t-118 -211h-88q33 31 63.5 78.5t53 107t36 128.5t13.5 143z" />
    <glyph glyph-name="asterisk" unicode="*" horiz-adv-x="382" 
d="M162 666h57v-118l113 37l20 -55l-112 -37l69 -88l-43 -40l-75 95l-76 -95l-42 40l68 88l-112 37l20 55l113 -37v118z" />
    <glyph glyph-name="plus" unicode="+" 
d="M40 278h175v171h68v-171h176v-68h-176v-175h-68v175h-175v68z" />
    <glyph glyph-name="comma" unicode="," horiz-adv-x="250" 
d="M26 -87q29 18 46.5 40.5t17.5 65.5v62h76v-60q0 -33 -9 -57.5t-23 -43t-32 -31.5t-37 -23z" />
    <glyph glyph-name="hyphen" unicode="-" horiz-adv-x="350" 
d="M70 276h210v-68h-210v68z" />
    <glyph glyph-name="period" unicode="." horiz-adv-x="249" 
d="M69 43q0 26 16 39t40 13q23 0 39 -13t16 -39t-16 -39.5t-39 -13.5q-24 0 -40 13.5t-16 39.5z" />
    <glyph glyph-name="slash" unicode="/" horiz-adv-x="390" 
d="M79 -44h-79l310 738h80z" />
    <glyph glyph-name="zero" unicode="0" 
d="M250 61q69 0 99 42t30 117v136q0 75 -30 116.5t-99 41.5t-99 -41.5t-30 -116.5v-136q0 -75 30 -117t99 -42zM250 -11q-54 0 -93.5 16.5t-65.5 46.5t-38.5 72.5t-12.5 94.5v138q0 52 12.5 94.5t38.5 72.5t65.5 46.5t93.5 16.5t93.5 -16.5t65.5 -46.5t38.5 -72.5
t12.5 -94.5v-138q0 -52 -12.5 -94.5t-38.5 -72.5t-65.5 -46.5t-93.5 -16.5z" />
    <glyph glyph-name="one" unicode="1" 
d="M303 74h130v-74h-358v74h147v425l-146 -99l-39 59l169 117h97v-502z" />
    <glyph glyph-name="two" unicode="2" 
d="M429 0h-373v69l169 180q19 21 38 41t34 41t24.5 42.5t9.5 45.5q0 28 -9 46t-24.5 29t-36.5 15.5t-45 4.5q-38 0 -73.5 -10.5t-62.5 -24.5l-20 65q39 19 81.5 31t90.5 12q82 0 131.5 -41.5t49.5 -118.5q0 -34 -9 -61.5t-25 -52t-36.5 -47.5t-43.5 -47l-139 -145h269v-74z
" />
    <glyph glyph-name="three" unicode="3" 
d="M53 546q42 19 87 30t91 11q38 0 71.5 -9t58 -27t38.5 -46t14 -66v-24q0 -54 -25.5 -81t-69.5 -37q48 -8 76 -36.5t28 -90.5v-23q0 -41 -14 -70.5t-39.5 -49t-61 -28.5t-78.5 -9q-53 0 -100 11.5t-86 31.5l23 66q32 -16 69 -27t82 -11q63 0 93.5 24.5t30.5 70.5v17
q0 28 -8.5 45t-24.5 26.5t-40 12.5t-54 3h-96v71h98q56 0 86 16.5t30 65.5v16q0 24 -9 40.5t-24.5 26.5t-36 14.5t-44.5 4.5q-38 0 -77.5 -10t-65.5 -23z" />
    <glyph glyph-name="four" unicode="4" 
d="M126 203h173v172h81v-172h63v-71h-63v-132h-81v132h-268v53l185 391h86z" />
    <glyph glyph-name="five" unicode="5" 
d="M408 576v-74h-241v-168q15 0 30 1q13 1 28.5 1.5t29.5 0.5q60 0 96.5 -9.5t56.5 -28.5t26.5 -48t6.5 -68v-33q0 -44 -14.5 -74t-40.5 -49.5t-61.5 -28t-78.5 -8.5q-108 0 -197 49l22 62q37 -19 78 -30t85 -11q55 0 90 20t35 74v23q0 29 -6.5 47t-21.5 27.5t-39 12.5
t-59 3q-15 0 -40 -1t-49 -2q-28 -1 -58 -2v314h322z" />
    <glyph glyph-name="six" unicode="6" 
d="M250 -10q-39 0 -73 9.5t-58.5 29t-39 50t-14.5 72.5v245q0 49 16 85.5t43.5 59.5t63 34.5t74.5 11.5q49 0 82 -7t66 -21l-19 -68q-26 11 -55 17.5t-64 6.5q-26 0 -49 -6.5t-40 -20.5t-27 -37.5t-10 -56.5v-68q24 12 53.5 19t59.5 7q39 0 72.5 -9t57.5 -28.5t37.5 -49
t13.5 -70.5v-44q0 -40 -15.5 -70t-42 -50.5t-61 -30.5t-71.5 -10zM252 59q21 0 40 5t34 16t24 28t9 41v45q0 24 -8.5 41.5t-23 28.5t-33.5 16t-40 5q-31 0 -59 -8.5t-49 -19.5v-108q0 -24 9 -41t23.5 -28t33.5 -16t40 -5z" />
    <glyph glyph-name="seven" unicode="7" 
d="M452 576v-55l-153 -233q-14 -21 -25 -39.5t-19 -38t-12 -42t-4 -51.5v-117h-80v114q0 30 4 55.5t12.5 49t21 46t29.5 48.5l125 189h-290v74h391z" />
    <glyph glyph-name="eight" unicode="8" 
d="M250 -10q-41 0 -77 8t-62.5 25.5t-41.5 45t-15 66.5v23q0 53 31.5 86.5t74.5 50.5q-45 17 -71.5 46t-26.5 80v22q0 42 16 70t42.5 44.5t60.5 23t69 6.5t69 -6.5t60.5 -23t42.5 -44.5t16 -70v-22q0 -51 -30 -80.5t-70 -45.5q48 -17 78 -50.5t30 -86.5v-23q0 -39 -15 -66.5
t-41.5 -45t-62.5 -25.5t-77 -8zM250 519q-20 0 -39.5 -2.5t-34.5 -11t-24.5 -24.5t-9.5 -43v-19q0 -23 9 -38t24 -25.5t35 -17t42 -12.5q22 5 41 11.5t33.5 17t22.5 26t8 38.5v19q0 27 -9 43t-24 24.5t-34.5 11t-39.5 2.5zM250 57q56 0 86 18.5t30 63.5v16q0 24 -11 42
t-28 30.5t-39 21t-43 13.5q-20 -5 -39.5 -13.5t-35.5 -21t-26 -30.5t-10 -42v-16q0 -45 30 -63.5t86 -18.5z" />
    <glyph glyph-name="nine" unicode="9" 
d="M68 24q5 17 10 33.5t10 33.5q29 -13 65 -21.5t74 -8.5q57 0 92 30t35 93v68q-45 -22 -115 -22q-35 0 -67.5 9t-57.5 27.5t-40 48.5t-15 72v26q0 45 14.5 78t40 54t60.5 31.5t75 10.5q39 0 73 -9.5t59 -29.5t39.5 -50.5t14.5 -72.5v-245q0 -50 -16 -86t-43 -59t-62.5 -34
t-74.5 -11q-55 0 -95.5 9.5t-75.5 24.5zM354 422q0 24 -8.5 42t-23.5 29.5t-34.5 17t-41.5 5.5q-44 0 -75 -22t-31 -71v-32q0 -50 30.5 -71t74.5 -21q38 0 65 7.5t44 18.5v97z" />
    <glyph glyph-name="colon" unicode=":" horiz-adv-x="250" 
d="M69 436q0 26 16 39.5t40 13.5q23 0 39 -13.5t16 -39.5t-16 -39t-39 -13q-24 0 -40 13t-16 39zM69 43q0 26 16 39t40 13q23 0 39 -13t16 -39t-16 -39.5t-39 -13.5q-24 0 -40 13.5t-16 39.5z" />
    <glyph glyph-name="semicolon" unicode=";" horiz-adv-x="250" 
d="M69 436q0 26 16 39.5t40 13.5q23 0 39 -13.5t16 -39.5t-16 -39t-39 -13q-24 0 -40 13t-16 39zM25 -87q27 19 45.5 41t18.5 65v62h77v-60q0 -33 -9 -57.5t-23 -43t-32.5 -31.5t-36.5 -23z" />
    <glyph glyph-name="less" unicode="&#x3c;" 
d="M40 289l419 152v-73l-347 -123l347 -123v-73l-419 152v88z" />
    <glyph glyph-name="equal" unicode="=" 
d="M40 376h419v-68h-419v68zM40 181h419v-68h-419v68z" />
    <glyph glyph-name="greater" unicode="&#x3e;" 
d="M459 200l-419 -152v73l347 123l-347 123v73l419 -152v-88z" />
    <glyph glyph-name="question" unicode="?" horiz-adv-x="380" 
d="M176 161h-79v153q77 23 123 56.5t46 87.5v40q0 60 -32.5 84t-85.5 24q-26 0 -53.5 -4t-49.5 -11l-15 66q26 9 60 14.5t65 5.5q88 0 139 -43.5t51 -143.5v-29q0 -39 -11 -68.5t-32.5 -52t-53 -39.5t-72.5 -32v-108zM82 43q0 26 16 39t40 13q23 0 39 -13t16 -39t-16 -39.5
t-39 -13.5q-24 0 -40 13.5t-16 39.5z" />
    <glyph glyph-name="at" unicode="@" horiz-adv-x="613" 
d="M93 0q-26 43 -39.5 100t-13.5 117q0 56 13.5 105.5t44.5 86.5t81 58.5t124 21.5q73 0 124.5 -21t84 -56.5t47 -80.5t14.5 -93q0 -39 -9.5 -71.5t-27.5 -56t-44 -36.5t-59 -13q-57 0 -77 36q-14 -14 -32.5 -25t-42.5 -11q-42 0 -67 23t-25 71v102q0 52 24.5 77.5
t79.5 25.5q29 0 58 -11t53 -25v-173q0 -23 8 -27t21 -4q28 0 46.5 31t18.5 84q0 37 -10 72t-33 62t-60.5 43t-91.5 16q-52 0 -88 -15.5t-58.5 -43.5t-32.5 -66t-10 -83q0 -61 16 -115t46 -105h-83zM289 119q15 0 28 10t21 21v139q-11 5 -22 9t-23 4q-20 0 -29 -12t-9 -32
v-99q0 -22 10 -31t24 -9z" />
    <glyph glyph-name="A" unicode="A" horiz-adv-x="526" 
d="M323 666l203 -666h-86l-54 177h-248l-55 -177h-83q51 168 101 333t101 333h121zM155 248h213l-106 356z" />
    <glyph glyph-name="B" unicode="B" horiz-adv-x="573" 
d="M177 69h122q71 0 102 24t31 85v18q0 32 -7.5 52.5t-23.5 32t-41.5 16t-60.5 4.5h-122v-232zM177 371h120q33 0 56.5 4t38.5 15.5t22.5 32t7.5 52.5v13q0 61 -31 84.5t-102 23.5h-112v-225zM289 666q57 0 98 -8.5t66.5 -29t37.5 -55t12 -87.5v-7q0 -29 -5.5 -53.5
t-17.5 -43.5t-31.5 -30.5t-48.5 -13.5q113 -9 113 -144v-18q0 -52 -12 -86t-38 -54t-66.5 -28t-97.5 -8h-203v666h193z" />
    <glyph glyph-name="C" unicode="C" horiz-adv-x="527" 
d="M309 676q47 0 88.5 -10.5t76.5 -29.5l-20 -69q-32 16 -67.5 26t-72.5 10q-81 0 -122.5 -45t-41.5 -120v-210q0 -75 41.5 -120t122.5 -45q51 0 86.5 11t70.5 31l20 -66q-36 -21 -80.5 -35t-101.5 -14q-58 0 -103 17t-75.5 48t-46 75t-15.5 97v211q0 54 15.5 97.5t46 75
t75 48.5t103.5 17z" />
    <glyph glyph-name="D" unicode="D" horiz-adv-x="628" 
d="M321 666q58 0 102.5 -17t74.5 -48.5t45 -75.5t15 -98v-189q0 -53 -15 -97t-45 -75.5t-74.5 -48.5t-102.5 -17h-225v666h225zM177 73h141q80 0 119.5 45t39.5 120v189q0 75 -39.5 120t-119.5 45h-141v-519z" />
    <glyph glyph-name="E" unicode="E" horiz-adv-x="521" 
d="M475 74v-74h-379v666h369v-74h-288v-210h271v-73h-271v-235h298z" />
    <glyph glyph-name="F" unicode="F" horiz-adv-x="512" 
d="M96 0v666h364v-74h-283v-226h266v-73h-266v-293h-81z" />
    <glyph glyph-name="G" unicode="G" horiz-adv-x="598" 
d="M317 603q-85 0 -126 -45t-41 -120v-209q0 -75 41.5 -120.5t122.5 -45.5q37 0 72.5 6.5t60.5 20.5v188h-153v74h234v-307q-17 -9 -37.5 -18.5t-46.5 -18t-58 -13.5t-72 -5q-61 0 -107 17t-76.5 48t-46 75t-15.5 97v211q0 54 15.5 97.5t46 75t76.5 48.5t106 17
q57 0 109 -12t87 -31l-26 -68q-35 18 -79.5 28t-86.5 10z" />
    <glyph glyph-name="H" unicode="H" horiz-adv-x="674" 
d="M496 0v307h-319v-307h-81v666h81v-285h319v285h82v-666h-82z" />
    <glyph glyph-name="I" unicode="I" horiz-adv-x="273" 
d="M177 666v-666h-81v666h81z" />
    <glyph glyph-name="J" unicode="J" horiz-adv-x="273" 
d="M177 666v-597q0 -56 -13 -94t-33 -63t-44.5 -41t-47.5 -28l-40 58q18 12 35.5 25.5t31 33t22 46t8.5 63.5v597h81z" />
    <glyph glyph-name="K" unicode="K" horiz-adv-x="580" 
d="M177 666v-353l300 353h95l-233 -282l246 -384h-100l-204 322l-104 -120v-202h-81v666h81z" />
    <glyph glyph-name="L" unicode="L" horiz-adv-x="445" 
d="M177 666v-592h259v-74h-340v666h81z" />
    <glyph glyph-name="M" unicode="M" horiz-adv-x="802" 
d="M225 666l176 -430l176 430h117l38 -666h-84l-26 578l-176 -428h-91l-175 428l-26 -578h-84l37 666h118z" />
    <glyph glyph-name="N" unicode="N" horiz-adv-x="688" 
d="M213 666l298 -568v568h81v-666h-117l-297 568v-568h-82v666h117z" />
    <glyph glyph-name="O" unicode="O" horiz-adv-x="619" 
d="M309 676q59 0 104 -17t75.5 -48.5t46 -75t15.5 -97.5v-210q0 -54 -15.5 -97.5t-46 -75t-75.5 -48.5t-104 -17q-57 0 -101.5 17t-75 48.5t-47 75t-16.5 97.5v210q0 54 15.5 97.5t46 75t75 48.5t103.5 17zM309 603q-80 0 -119.5 -45t-39.5 -120v-210q0 -75 39.5 -120
t119.5 -45q81 0 120.5 45t39.5 120v210q0 75 -39.5 120t-120.5 45z" />
    <glyph glyph-name="P" unicode="P" horiz-adv-x="546" 
d="M177 328q14 -1 32 -2q15 -1 36.5 -1.5t47.5 -0.5q73 0 103.5 25t30.5 88v44q0 63 -30.5 88t-102.5 25h-117v-266zM294 666q57 0 97.5 -9t66.5 -30.5t38 -57t12 -87.5v-45q0 -52 -12 -87.5t-38 -57t-66.5 -31t-97.5 -9.5q-32 0 -62.5 0.5t-54.5 2.5v-255h-81v666h198z" />
    <glyph glyph-name="Q" unicode="Q" horiz-adv-x="619" 
d="M309 676q59 0 104 -17t75.5 -48.5t46 -75t15.5 -97.5v-210q0 -93 -45.5 -152.5t-133.5 -75.5l108 -130l-66 -47l-123 168q-109 6 -165 70t-56 167v210q0 54 15.5 97.5t46 75t75 48.5t103.5 17zM309 603q-80 0 -119.5 -45t-39.5 -120v-210q0 -75 39.5 -120t119.5 -45
q81 0 120.5 45t39.5 120v210q0 75 -39.5 120t-120.5 45z" />
    <glyph glyph-name="R" unicode="R" horiz-adv-x="578" 
d="M538 0h-97l-147 262h-10q-31 0 -59 1t-48 3v-266h-81v666h198q57 0 97.5 -9t66.5 -30.5t38 -57t12 -87.5v-39q0 -82 -32.5 -120t-98.5 -49zM177 337q18 -1 37 -2q17 -1 37.5 -1h41.5q73 0 103.5 24.5t30.5 87.5v35q0 63 -30.5 88t-102.5 25h-117v-257z" />
    <glyph glyph-name="S" unicode="S" horiz-adv-x="516" 
d="M75 110q34 -20 81.5 -33t94.5 -13q27 0 50.5 5.5t41.5 17.5t28.5 32t10.5 50v26q0 26 -11 42t-29.5 26.5t-43 17.5t-52.5 16q-49 15 -84.5 28t-59 31t-34.5 45t-11 71v36q0 47 17 79t45 52t65 28.5t76 8.5q54 0 96.5 -11t82.5 -31l-22 -70q-35 17 -75 27t-76 10
q-27 0 -50 -5t-40 -16.5t-27 -30t-10 -45.5v-21q0 -26 8.5 -42.5t26.5 -28t45 -20.5t63 -20q39 -12 72.5 -22.5t57.5 -27t37.5 -43.5t13.5 -72v-39q0 -50 -17 -84t-45 -55t-65.5 -30t-77.5 -9q-57 0 -110.5 14.5t-95.5 37.5z" />
    <glyph glyph-name="T" unicode="T" horiz-adv-x="462" 
d="M454 666v-74h-182v-592h-81v592h-183v74h446z" />
    <glyph glyph-name="U" unicode="U" horiz-adv-x="604" 
d="M535 227q0 -53 -14.5 -97t-43.5 -75t-73 -48t-102 -17q-59 0 -102.5 17t-72.5 48t-43.5 75t-14.5 97v439h81v-438q0 -74 36.5 -119.5t115.5 -45.5q80 0 116 45t36 120v438h81v-439z" />
    <glyph glyph-name="V" unicode="V" horiz-adv-x="560" 
d="M218 0l-206 666h90l178 -606l179 606h88l-206 -666h-123z" />
    <glyph glyph-name="W" unicode="W" horiz-adv-x="905" 
d="M453 605l-144 -605h-126l-168 666h87l145 -606l144 606h125l144 -606l145 606h85l-166 -666h-126z" />
    <glyph glyph-name="X" unicode="X" horiz-adv-x="514" 
d="M506 0h-92l-162 287l-161 -287h-89l198 348l-179 318h92l148 -265l148 265h86l-181 -325z" />
    <glyph glyph-name="Y" unicode="Y" horiz-adv-x="508" 
d="M413 666h88l-206 -424v-242h-81v242l-207 424h89l159 -347z" />
    <glyph glyph-name="Z" unicode="Z" horiz-adv-x="488" 
d="M30 62l310 530h-294v74h391v-63l-309 -529h318v-74h-416v62z" />
    <glyph glyph-name="bracketleft" unicode="[" horiz-adv-x="335" 
d="M324 678h-151v-787h151v-68h-228v922h228v-67z" />
    <glyph glyph-name="backslash" unicode="\" horiz-adv-x="390" 
d="M0 694h80l310 -738h-79z" />
    <glyph glyph-name="bracketright" unicode="]" horiz-adv-x="335" 
d="M10 745h228v-922h-228v68h151v787h-151v67z" />
    <glyph glyph-name="asciicircum" unicode="^" 
d="M250 618l-93 -248h-76l114 296h109l114 -296h-75z" />
    <glyph glyph-name="underscore" unicode="_" horiz-adv-x="697" 
d="M37 -45h622v-63h-622v63z" />
    <glyph glyph-name="grave" unicode="`" 
d="M155 666h95l94 -126h-77z" />
    <glyph glyph-name="a" unicode="a" horiz-adv-x="465" 
d="M315 207q-23 9 -53 14.5t-61 5.5q-42 0 -63 -15t-21 -59v-21q0 -35 22.5 -55.5t57.5 -20.5q38 0 68 19.5t50 48.5v83zM65 455q42 18 82.5 26t76.5 8q27 0 55.5 -6t52 -19.5t40 -36t19.5 -55.5q1 -11 1.5 -23t0.5 -24v-235q0 -11 0.5 -26.5t2.5 -29.5l4 -34h-75l-3 53
q-22 -23 -57 -43t-85 -20q-66 0 -103.5 37.5t-37.5 109.5v19q0 39 11.5 64.5t31.5 41.5t48.5 22.5t61.5 6.5q29 0 64 -5t59 -13v80q0 18 -8.5 31.5t-23.5 22.5t-34.5 13t-40.5 4q-31 0 -60.5 -7t-64.5 -23z" />
    <glyph glyph-name="b" unicode="b" horiz-adv-x="477" 
d="M148 83q7 -5 18.5 -9.5t25.5 -8t29 -5.5t30 -2q50 0 76.5 29t26.5 77v163q0 26 -7 44t-18.5 29t-26.5 15.5t-31 4.5q-33 0 -66 -12t-57 -23v-302zM148 714v-264q33 17 69.5 28.5t75.5 11.5q27 0 52.5 -8.5t44.5 -26.5t30.5 -47.5t11.5 -71.5v-179q0 -39 -13 -70.5
t-36.5 -53t-56 -33t-71.5 -11.5q-60 0 -108 16.5t-77 36.5v672h78z" />
    <glyph glyph-name="c" unicode="c" horiz-adv-x="407" 
d="M347 393q-23 13 -51 20.5t-64 7.5q-53 0 -81 -29.5t-28 -80.5v-143q0 -29 9.5 -49.5t25 -34t36 -20t43.5 -6.5q38 0 64 8.5t49 22.5l21 -61q-31 -19 -65.5 -28.5t-77.5 -9.5q-34 0 -66.5 10t-58.5 31.5t-42 54t-16 77.5v152q0 83 49.5 128.5t131.5 45.5q42 0 75.5 -7.5
t65.5 -25.5z" />
    <glyph glyph-name="d" unicode="d" horiz-adv-x="480" 
d="M329 395q-21 12 -49 18.5t-54 6.5q-53 0 -78 -30t-25 -81v-139q0 -58 23 -85t67 -27q22 0 40.5 7t33.5 17.5t26 22t16 19.5v271zM407 90q2 -23 3.5 -45t3.5 -45h-75l-3 53q-7 -9 -20.5 -20t-31.5 -20.5t-40 -16t-47 -6.5q-32 0 -59.5 10t-48 30t-32.5 51.5t-12 74.5v166
q0 80 44.5 123.5t121.5 43.5q35 0 65 -7t53 -15v247h78v-624z" />
    <glyph glyph-name="e" unicode="e" horiz-adv-x="438" 
d="M322 313q0 52 -22.5 81.5t-73.5 29.5t-77 -29.5t-26 -80.5v-28h199v27zM123 222v-60q0 -55 35 -80.5t86 -25.5q41 0 71.5 9.5t53.5 22.5l19 -63q-32 -17 -70.5 -26t-83.5 -9q-36 0 -70 9.5t-60.5 30.5t-42.5 54t-16 79v152q0 78 46.5 126t134.5 48t129.5 -48.5
t41.5 -126.5v-92h-274z" />
    <glyph glyph-name="f" unicode="f" horiz-adv-x="280" 
d="M74 479v78q0 81 41 124t119 43q31 0 55 -7.5t34 -12.5l-17 -62q-11 4 -26.5 8.5t-35.5 4.5q-92 0 -92 -98v-78h119l-9 -66h-110v-413h-78v413h-67v66h67z" />
    <glyph glyph-name="g" unicode="g" horiz-adv-x="477" 
d="M214 69q21 0 40 7t34 17.5t25.5 22t15.5 19.5v259q-21 11 -49 18.5t-54 7.5q-53 0 -78 -30.5t-25 -81.5v-127q0 -58 23.5 -85t67.5 -27zM329 59q-8 -9 -20.5 -19.5t-29.5 -19.5t-38 -14.5t-45 -5.5q-33 0 -60.5 10t-47.5 30.5t-31.5 52t-11.5 74.5v155q0 78 49.5 122.5
t132.5 44.5q34 0 63 -5t51.5 -12.5t39 -15.5t26.5 -14v-446q0 -92 -45.5 -137.5t-133.5 -45.5q-55 0 -97 13t-65 25l19 61q9 -4 23 -10t31.5 -11.5t38.5 -9.5t43 -4q108 0 108 119v63z" />
    <glyph glyph-name="h" unicode="h" horiz-adv-x="499" 
d="M70 714h78v-271q30 17 65.5 31.5t80.5 14.5q63 0 100.5 -35.5t37.5 -117.5v-336h-78v327q0 52 -24.5 72.5t-58.5 20.5q-33 0 -66.5 -14t-56.5 -27v-379h-78v714z" />
    <glyph glyph-name="i" unicode="i" horiz-adv-x="217" 
d="M148 479v-479h-78v479h78zM59 677q0 23 13.5 35t35.5 12q21 0 35.5 -12t14.5 -35t-14.5 -35t-35.5 -12q-22 0 -35.5 12t-13.5 35z" />
    <glyph glyph-name="j" unicode="j" horiz-adv-x="217" 
d="M148 479v-414q0 -60 -15 -102.5t-36.5 -72.5t-45.5 -49t-43 -30l-42 52q18 12 36.5 29t33.5 42t24.5 57t9.5 74v414h78zM59 677q0 23 13.5 35t35.5 12q21 0 35.5 -12t14.5 -35t-14.5 -35t-35.5 -12q-22 0 -35.5 12t-13.5 35z" />
    <glyph glyph-name="k" unicode="k" horiz-adv-x="445" 
d="M148 714v-451l204 216h93l-176 -190l193 -289h-92l-160 238l-62 -66v-172h-78v714h78z" />
    <glyph glyph-name="l" unicode="l" horiz-adv-x="218" 
d="M148 714v-714h-78v714h78z" />
    <glyph glyph-name="m" unicode="m" horiz-adv-x="770" 
d="M144 479l2 -37q31 18 64 32.5t80 14.5q38 0 68.5 -15t47.5 -47q45 32 81.5 47t78.5 15q29 0 54 -8.5t43.5 -26.5t29 -47t10.5 -71v-336h-78v327q0 52 -25 72.5t-58 20.5q-16 0 -32.5 -5t-32 -12t-30 -15t-26.5 -15q3 -11 4 -21.5t1 -24.5v-327h-78v327q0 52 -25 72.5
t-58 20.5t-63 -14t-53 -27v-379h-78v400l-2 79h75z" />
    <glyph glyph-name="n" unicode="n" 
d="M144 479l2 -37q31 17 67.5 32t81.5 15q63 0 100.5 -35.5t37.5 -117.5v-336h-78v327q0 52 -24.5 72.5t-58.5 20.5q-33 0 -66.5 -14t-56.5 -27v-379h-78v400l-2 79h75z" />
    <glyph glyph-name="o" unicode="o" horiz-adv-x="467" 
d="M234 489q90 0 139 -48t49 -126v-152q0 -78 -49 -125.5t-139 -47.5q-43 0 -78 12.5t-59.5 35t-38 54.5t-13.5 71v152q0 78 49.5 126t139.5 48zM234 420q-52 0 -81.5 -31t-29.5 -82v-136q0 -52 29.5 -82.5t81.5 -30.5q51 0 80.5 30t29.5 83v136q0 52 -29.5 82.5t-80.5 30.5
z" />
    <glyph glyph-name="p" unicode="p" horiz-adv-x="479" 
d="M144 479l3 -37q31 17 68.5 32t78.5 15q29 0 54.5 -8.5t44.5 -27t30 -47.5t11 -70v-180q0 -39 -12.5 -70t-34.5 -52t-52.5 -32.5t-67.5 -11.5q-64 0 -117 25v-192h-78v578q0 20 -1 39t-2 39h75zM150 84q14 -11 44.5 -18.5t59.5 -7.5q53 0 77.5 30.5t24.5 81.5v157
q0 26 -7 44t-18.5 29t-26.5 15.5t-31 4.5q-33 0 -66 -13t-57 -27v-296z" />
    <glyph glyph-name="q" unicode="q" horiz-adv-x="477" 
d="M407 -177h-78v223q-7 -8 -19.5 -18t-29.5 -18.5t-37.5 -14t-44.5 -5.5q-30 0 -58 9.5t-49 29.5t-33.5 51.5t-12.5 75.5v166q0 39 13 70t37 52.5t58 33t75 11.5q34 0 62.5 -5.5t51 -13.5t39 -16.5t26.5 -14.5v-616zM329 395q-21 12 -49 18.5t-54 6.5q-52 0 -77.5 -30
t-25.5 -81v-139q0 -58 23.5 -85t68.5 -27q21 0 39.5 7t33.5 17.5t25.5 22t15.5 19.5v271z" />
    <glyph glyph-name="r" unicode="r" horiz-adv-x="325" 
d="M144 479l3 -51q35 24 69.5 42.5t80.5 18.5q7 0 15 -2l-8 -78q-11 3 -25 3q-38 0 -71.5 -16.5t-59.5 -34.5v-361h-78v400l-2 79h76z" />
    <glyph glyph-name="s" unicode="s" horiz-adv-x="390" 
d="M317 396q-24 12 -51.5 20.5t-62.5 8.5q-40 0 -64.5 -16.5t-24.5 -49.5v-18q0 -18 8.5 -29.5t24.5 -19t38.5 -13.5t49.5 -13q64 -18 94.5 -44t30.5 -78v-24q0 -35 -13 -59.5t-35 -40.5t-52.5 -23t-64.5 -7q-45 0 -88.5 9.5t-76.5 28.5l25 58q26 -14 61.5 -24.5t76.5 -10.5
q40 0 67 17t27 56v15q0 19 -11.5 31t-29.5 20t-40.5 13.5t-44.5 11.5q-33 9 -56 19.5t-37.5 25t-21.5 34.5t-7 48v22q0 32 13 55.5t34.5 39t50 23t59.5 7.5q49 0 83 -9.5t64 -23.5z" />
    <glyph glyph-name="t" unicode="t" horiz-adv-x="305" 
d="M76 479v103l76 27v-130h131l-9 -66h-122v-289q0 -20 5.5 -33t14 -20.5t20 -10t23.5 -2.5q24 0 44.5 7.5t30.5 13.5l14 -61q-18 -11 -48 -19.5t-60 -8.5q-23 0 -44.5 5t-39 18t-28 35.5t-10.5 56.5v308h-67v66h69z" />
    <glyph glyph-name="u" unicode="u" horiz-adv-x="492" 
d="M135 479v-315q0 -54 24 -80t67 -26q21 0 39.5 7t33.5 17.5t25.5 22t16.5 19.5v355h78v-389q2 -23 3.5 -45t3.5 -45h-76l-3 57q-8 -11 -21.5 -22.5t-31.5 -21.5t-40 -16.5t-46 -6.5q-31 0 -58.5 9.5t-48 29.5t-32.5 51.5t-12 75.5v323h78z" />
    <glyph glyph-name="v" unicode="v" horiz-adv-x="438" 
d="M91 479l128 -420l129 420h85l-160 -479h-108l-160 479h86z" />
    <glyph glyph-name="w" unicode="w" horiz-adv-x="713" 
d="M91 479l106 -423l103 423h112l103 -423l106 423h83l-132 -479h-113l-103 423l-103 -423h-113l-132 479h83z" />
    <glyph glyph-name="x" unicode="x" horiz-adv-x="412" 
d="M95 479l113 -189l115 189h79l-149 -242l148 -237h-85l-115 189l-115 -189h-83l153 242l-146 237h85z" />
    <glyph glyph-name="y" unicode="y" horiz-adv-x="416" 
d="M90 479l116 -405l122 405h83l-165 -500q-15 -45 -36.5 -75.5t-48.5 -50t-57.5 -29t-63.5 -12.5l-14 60q56 9 93.5 34t54.5 77l10 30h-33l-146 466h85z" />
    <glyph glyph-name="z" unicode="z" horiz-adv-x="388" 
d="M355 479v-51l-227 -362h232v-66h-327v49l229 364h-225v66h318z" />
    <glyph glyph-name="braceleft" unicode="{" horiz-adv-x="361" 
d="M110 278q12 -1 29.5 -5.5t34 -15t28.5 -28.5t12 -48q0 -50 -9 -101.5t-9 -102.5q0 -43 21 -71t74 -28q18 0 29.5 2t24.5 5l10 -64q-16 -4 -31.5 -7t-29.5 -3q-95 0 -136 43.5t-41 122.5q0 27 3 52t7 49t7 47.5t3 46.5q0 42 -27 56.5t-74 15.5v68q47 2 74 16.5t27 56.5
q0 46 -10 94t-10 101q0 80 41.5 123t135.5 43q13 0 29 -2.5t32 -7.5l-10 -63q-13 2 -25 4t-29 2q-52 0 -73.5 -27t-21.5 -72q0 -51 9 -103t9 -101q0 -30 -12 -48.5t-28.5 -28.5t-34 -14t-29.5 -5v-2z" />
    <glyph glyph-name="bar" unicode="|" horiz-adv-x="271" 
d="M174 -177h-78v929h78v-929z" />
    <glyph glyph-name="braceright" unicode="}" horiz-adv-x="361" 
d="M251 280q-12 1 -30 5t-34.5 14t-28.5 28.5t-12 48.5q0 49 9.5 101t9.5 103q0 44 -21 71.5t-74 27.5q-18 0 -30 -2t-25 -4l-9 63q15 4 31 7t30 3q87 0 131 -37.5t45 -109.5q0 -38 -2.5 -68t-6.5 -55.5t-7 -47.5t-3 -43q0 -42 26.5 -56.5t74.5 -16.5v-68
q-48 -1 -74.5 -15.5t-26.5 -56.5q0 -21 3 -44t7 -49t6.5 -56t2.5 -65q-1 -71 -45.5 -109t-130.5 -38q-14 0 -30.5 2.5t-30.5 7.5l9 64q13 -3 25 -5t30 -2q51 0 73 27.5t22 71.5q0 51 -9.5 102.5t-9.5 101.5q0 30 12 48t28.5 28.5t34.5 15t30 5.5v2v0z" />
    <glyph glyph-name="asciitilde" unicode="~" 
d="M62 225q12 35 42 61t68 26q22 0 43.5 -7.5t40.5 -16.5t36.5 -16.5t32.5 -7.5q21 0 36.5 17t21.5 38l55 -22q-3 -17 -11 -34.5t-21.5 -32.5t-33 -24.5t-45.5 -9.5q-23 0 -43 7.5t-38.5 16t-35.5 16t-33 7.5q-40 0 -63 -47q-1 0 -9 4.5t-17.5 10t-17.5 10z" />
    <glyph glyph-name="exclamdown" unicode="&#xa1;" horiz-adv-x="272" 
d="M174 317q1 -125 1.5 -247t0.5 -247h-81q1 125 1.5 247t0.5 247h77zM80 437q0 26 16.5 39t39.5 13t39 -13t16 -39t-16 -39.5t-39 -13.5t-39.5 13.5t-16.5 39.5z" />
    <glyph glyph-name="cent" unicode="&#xa2;" 
d="M408 393q-22 12 -53.5 20t-66.5 8q-59 0 -93.5 -31t-34.5 -79v-143q0 -30 11 -50.5t29.5 -34t42 -19.5t49.5 -6q34 0 64.5 8.5t53.5 22.5l22 -61q-58 -35 -135 -38v-82h-57v85q-29 5 -57.5 18t-50.5 34t-35.5 50.5t-13.5 67.5v152q0 36 11.5 65.5t32.5 51t50 35.5t63 19
v90h57v-87q36 -2 69.5 -9.5t61.5 -23.5z" />
    <glyph glyph-name="sterling" unicode="&#xa3;" 
d="M440 457q-2 -4 -4.5 -12.5t-5.5 -18t-5.5 -18t-4.5 -11.5q-21 11 -43 19.5t-55 8.5q-53 0 -74.5 -30t-21.5 -80v-54h150q-3 -16 -6 -31.5t-7 -31.5h-137v-42q0 -37 -11 -56.5t-31 -34.5h256v-65h-373v53q13 7 27 16t25.5 21t19 27.5t7.5 36.5v44h-68v63h68v55
q0 82 40.5 127.5t125.5 45.5q38 0 69 -8t59 -24z" />
    <glyph glyph-name="currency" unicode="&#xa4;" 
d="M98 134q-37 48 -37 110q0 63 37 109l-63 63l38 38l62 -64q23 17 52.5 27.5t61.5 10.5t60.5 -10.5t51.5 -27.5l64 64l38 -38l-64 -63q17 -23 27.5 -50.5t10.5 -58.5q0 -32 -10.5 -59.5t-27.5 -50.5l64 -63l-38 -37l-64 62q-47 -36 -112 -36q-64 0 -114 36l-62 -62l-38 37z
M127 244q0 -24 9.5 -46t26 -38t39 -25.5t47.5 -9.5t47 9.5t38 25.5t25.5 38t9.5 46t-9.5 46t-25.5 38t-38 25.5t-47 9.5t-47.5 -9.5t-39 -25.5t-26 -38t-9.5 -46z" />
    <glyph glyph-name="yen" unicode="&#xa5;" 
d="M119 479q32 -60 65.5 -118.5t65.5 -118.5q33 60 66 118.5t65 118.5h80q-38 -66 -76.5 -131t-77.5 -131h102v-50h-118v-51h118v-50h-118v-66h-82v66h-120v50h120v51h-120v50h103l-154 262h81z" />
    <glyph glyph-name="brokenbar" unicode="&#xa6;" horiz-adv-x="274" 
d="M178 380h-78v371h78v-371zM178 -177h-78v371h78v-371z" />
    <glyph glyph-name="section" unicode="&#xa7;" horiz-adv-x="407" 
d="M350 557q-7 -14 -12.5 -27.5t-12.5 -27.5q-22 11 -49.5 19t-54.5 8q-14 0 -28 -2.5t-25.5 -8.5t-18.5 -17t-7 -27v-12q0 -29 29 -41t80 -28q28 -9 48.5 -18.5t33 -21.5t18.5 -28.5t6 -40.5q0 -31 -17.5 -53.5t-34.5 -36.5q19 -14 29 -31.5t10 -44.5v-10q0 -34 -12.5 -57
t-34 -36.5t-49.5 -19t-59 -5.5q-38 0 -73 8.5t-67 24.5l24 55q23 -11 51 -20t61 -9q13 0 27 2.5t25.5 8.5t19 16.5t7.5 27.5v11q0 14 -8 23.5t-22.5 17t-34 14t-42.5 14.5q-52 16 -80 38.5t-28 66.5q0 29 17 53t37 41q-19 13 -30 31t-11 44v18q0 33 13.5 55t34.5 34.5
t48 17.5t54 5q42 0 75.5 -8.5t62.5 -22.5zM191 242q21 -7 36.5 -12t27.5 -10q11 9 22 23t11 31q0 18 -13.5 30t-34 21t-45 16t-45.5 16q-11 -8 -21.5 -22t-10.5 -34q0 -25 19 -36t54 -23z" />
    <glyph glyph-name="dieresis" unicode="&#xa8;" 
d="M127 603q0 21 13 32t33 11t33.5 -11t13.5 -32t-13.5 -32t-33.5 -11t-33 11t-13 32zM279 603q0 21 13 32t33 11t33 -11t13 -32t-13 -32t-33 -11t-33 11t-13 32z" />
    <glyph glyph-name="copyright" unicode="&#xa9;" horiz-adv-x="695" 
d="M347 586q62 0 116.5 -23.5t95 -64t64 -94.5t23.5 -116t-23.5 -116t-64 -94.5t-95 -64t-116.5 -23.5t-116.5 23.5t-95 64t-64 94.5t-23.5 116t23.5 116t64 94.5t95 64t116.5 23.5zM434 393q-17 8 -36.5 13.5t-39.5 5.5q-24 0 -39 -7.5t-23 -20.5t-10.5 -31t-2.5 -40v-61
q0 -20 3 -36.5t11.5 -28.5t23 -19t37.5 -7q28 0 47 6t38 17l13 -50q-20 -12 -44.5 -20t-56.5 -8q-66 0 -100.5 36t-34.5 95v100q0 59 34.5 94.5t100.5 35.5q26 0 49 -6t43 -15zM347 537q-52 0 -97.5 -19.5t-79.5 -53.5t-53.5 -79.5t-19.5 -96.5q0 -52 19.5 -97.5t53.5 -79.5
t79.5 -53.5t97.5 -19.5t97.5 19.5t79.5 53.5t53.5 79.5t19.5 97.5q0 51 -19.5 96.5t-53.5 79.5t-79.5 53.5t-97.5 19.5z" />
    <glyph glyph-name="ordfeminine" unicode="&#xaa;" horiz-adv-x="380" 
d="M237 492q-14 5 -31.5 7t-31.5 2q-47 0 -47 -41v-12q0 -23 13 -33.5t32 -10.5q21 0 37 11t28 28v49zM82 654q26 11 54.5 16.5t51.5 5.5q18 0 37.5 -3t36.5 -12t28 -25t11 -42v-170q0 -20 0.5 -35.5t1.5 -23.5h-60l-3 29q-13 -17 -32 -27.5t-43 -10.5q-19 0 -36.5 5.5
t-31 16.5t-21.5 28t-8 41v14q0 51 27 69t68 18q15 0 36 -2t38 -7v49q0 21 -18 29.5t-38 8.5q-17 0 -38 -3.5t-48 -14.5z" />
    <glyph glyph-name="guillemotleft" unicode="&#xab;" horiz-adv-x="395" 
d="M118 244l95 -154h-74l-93 154l93 154h74zM258 244l102 -154h-74l-100 154l100 154h74z" />
    <glyph glyph-name="logicalnot" unicode="&#xac;" 
d="M40 278h419v-219h-69v151h-350v68z" />
    <glyph glyph-name="registered" unicode="&#xae;" horiz-adv-x="610" 
d="M318 572q54 0 76.5 -19t22.5 -70v-7q0 -35 -14 -52.5t-46 -22.5l73 -124h-66l-66 117q-12 0 -18 0.5t-14 1.5v-119h-58v295h110zM266 442q7 -1 14 -1q6 -1 13 -1h14q22 0 37.5 5t15.5 33v9q0 28 -12.5 33.5t-40.5 5.5h-41v-84zM48 420q0 53 20 100t54.5 81.5t81.5 54.5
t100 20t100 -20t82 -54.5t55 -81.5t20 -100t-20 -100t-55 -81.5t-82 -54.5t-100 -20t-100 20t-81.5 54.5t-54.5 81.5t-20 100zM91 420q0 -44 16.5 -83t45.5 -68t68 -45.5t83 -16.5t83 16.5t68 45.5t46 68t17 83t-17 83t-46 68t-68 46t-83 17t-83 -17t-68 -46t-45.5 -68
t-16.5 -83z" />
    <glyph glyph-name="macron" unicode="&#xaf;" 
d="M134 639h231v-58h-231v58z" />
    <glyph glyph-name="degree" unicode="&#xb0;" horiz-adv-x="360" 
d="M66 559q0 24 9 44.5t24.5 36t36 24.5t44.5 9t44.5 -9t36 -24.5t24.5 -36t9 -44.5t-9 -44.5t-24.5 -36t-36 -24.5t-44.5 -9t-44.5 9t-36 24.5t-24.5 36t-9 44.5zM120 559q0 -26 17.5 -43t42.5 -17t42 17t17 43q0 25 -17 42t-42 17t-42.5 -17t-17.5 -42z" />
    <glyph glyph-name="plusminus" unicode="&#xb1;" 
d="M40 323h175v144h68v-144h176v-68h-176v-147h-68v147h-175v68zM40 68h419v-68h-419v68z" />
    <glyph glyph-name="twosuperior" unicode="&#xb2;" 
d="M157 653q20 11 42.5 17t44.5 6q41 0 64 -20t23 -58q0 -29 -13.5 -50.5t-33.5 -41.5l-57 -58h112v-46h-182v39l82 86q17 17 28 33.5t11 33.5q0 20 -13 28t-31 8q-17 0 -33.5 -5.5t-30.5 -13.5l-13 42v0z" />
    <glyph glyph-name="threesuperior" unicode="&#xb3;" 
d="M282 600q0 30 -42 30q-17 0 -36.5 -5.5t-31.5 -10.5l-13 41q23 10 45 15.5t43 5.5q38 0 63.5 -17.5t25.5 -54.5v-11q0 -20 -11.5 -34t-31.5 -19q22 -4 34.5 -17t12.5 -37v-12q0 -40 -27.5 -58.5t-69.5 -18.5q-24 0 -46 6.5t-43 17.5q4 10 8 19.5t8 20.5q14 -8 31 -13.5
t37 -5.5q23 0 36 10t13 26v8q0 17 -12.5 25t-32.5 8h-54v42h56q19 0 28.5 6.5t9.5 25.5v7z" />
    <glyph glyph-name="acute" unicode="&#xb4;" 
d="M344 666l-112 -126h-75l94 126h93z" />
    <glyph glyph-name="mu" unicode="&#xb5;" horiz-adv-x="505" 
d="M361 57q-7 -10 -20 -21t-29.5 -20.5t-37 -15.5t-42.5 -6q-49 0 -85 33v-204h-77v656h78v-315q0 -54 24.5 -80t66.5 -26q21 0 39.5 7t33.5 17.5t25.5 22t16.5 19.5v355h78v-389q0 -8 0.5 -23t2.5 -30q2 -18 4 -37h-75z" />
    <glyph glyph-name="mu" unicode="&#x3bc;" horiz-adv-x="505" 
d="M361 57q-7 -10 -20 -21t-29.5 -20.5t-37 -15.5t-42.5 -6q-49 0 -85 33v-204h-77v656h78v-315q0 -54 24.5 -80t66.5 -26q21 0 39.5 7t33.5 17.5t25.5 22t16.5 19.5v355h78v-389q0 -8 0.5 -23t2.5 -30q2 -18 4 -37h-75z" />
    <glyph glyph-name="paragraph" unicode="&#xb6;" horiz-adv-x="598" 
d="M398 -158h-58v413q-12 0 -21 -0.5t-18.5 -1t-20.5 -1t-27 -0.5q-57 0 -98 9.5t-66.5 31t-37.5 56t-12 84.5v49q0 52 12 87.5t38.5 57t67.5 30.5t98 9h143v-824zM443 666h58v-824h-58v824z" />
    <glyph glyph-name="periodcentered" unicode="&#xb7;" horiz-adv-x="250" 
d="M69 306q0 26 16 39t40 13q23 0 39 -13t16 -39t-16 -39.5t-39 -13.5q-24 0 -40 13.5t-16 39.5z" />
    <glyph glyph-name="cedilla" unicode="&#xb8;" 
d="M290 0q11 -17 22 -35t11 -37q0 -32 -21.5 -52.5t-62.5 -20.5q-17 0 -35.5 4t-38.5 14l13 48q16 -7 27 -9t19 -2q32 0 32 24q0 11 -9.5 29t-20.5 37h64z" />
    <glyph glyph-name="onesuperior" unicode="&#xb9;" 
d="M277 397h-53v207l-56 -35l-25 39l84 57h50v-268z" />
    <glyph glyph-name="ordmasculine" unicode="&#xba;" horiz-adv-x="380" 
d="M310 466q0 -51 -32 -80.5t-89 -29.5q-54 0 -87.5 29.5t-33.5 80.5v99q0 51 32 81t89 30t89 -30t32 -81v-99zM248 560q0 29 -15 46t-44 17q-28 0 -43.5 -17t-15.5 -46v-89q0 -29 15.5 -46t43.5 -17t43.5 16t15.5 43v93z" />
    <glyph glyph-name="guillemotright" unicode="&#xbb;" horiz-adv-x="395" 
d="M35 398h74l101 -154l-101 -154h-74l103 154zM182 398h74l93 -154l-93 -154h-74l95 154z" />
    <glyph glyph-name="onequarter" unicode="&#xbc;" 
d="M418 311h-337v47h337v-47zM194 103h60v66h51v-66h40v-47h-40v-56h-51v56h-117v36l82 177h51zM277 397h-53v207l-56 -35l-25 39l84 57h50v-268z" />
    <glyph glyph-name="onehalf" unicode="&#xbd;" 
d="M418 311h-337v47h337v-47zM277 397h-53v207l-56 -35l-25 39l84 57h50v-268zM158 251q20 11 42.5 17t44.5 6q41 0 64 -20t23 -58q0 -29 -13.5 -50.5t-33.5 -41.5l-57 -58h112v-46h-182v39l82 86q17 17 28 33.5t11 33.5q0 20 -13 28t-31 8q-17 0 -33.5 -5.5t-30.5 -13.5z
" />
    <glyph glyph-name="threequarters" unicode="&#xbe;" 
d="M418 310h-337v48h337v-48zM194 103h60v66h51v-66h40v-47h-40v-56h-52v56h-116v35l81 177h52zM282 600q0 30 -42 30q-17 0 -36.5 -5.5t-31.5 -10.5l-13 41q23 10 45 15.5t43 5.5q38 0 63.5 -17.5t25.5 -54.5v-11q0 -20 -11.5 -34t-31.5 -19q22 -4 34.5 -17t12.5 -37v-12
q0 -40 -27.5 -58.5t-69.5 -18.5q-24 0 -46 6.5t-43 17.5q4 10 8 19.5t8 20.5q14 -8 31 -13.5t37 -5.5q23 0 36 10t13 26v8q0 17 -12.5 25t-32.5 8h-54v42h56q19 0 28.5 6.5t9.5 25.5v7z" />
    <glyph glyph-name="questiondown" unicode="&#xbf;" horiz-adv-x="351" 
d="M292 437q0 -26 -16 -39.5t-39 -13.5q-24 0 -40 13.5t-16 39.5t16 39t40 13q23 0 39 -13t16 -39zM198 314h79v-140q-77 -23 -123 -56.5t-46 -87.5v-39q0 -60 32 -84t86 -24q26 0 53.5 4t49.5 11l15 -66q-26 -9 -60 -14.5t-65 -5.5q-44 0 -79 10t-60 32.5t-38 58t-13 85.5
v29q0 39 11 68t32.5 51.5t53 40t72.5 32.5v95z" />
    <glyph glyph-name="Agrave" unicode="&#xc0;" horiz-adv-x="526" 
d="M323 666l203 -666h-86l-54 177h-248l-55 -177h-83q51 168 101 333t101 333h121zM155 248h213l-106 356zM116 853h95l94 -126h-77z" />
    <glyph glyph-name="Aacute" unicode="&#xc1;" horiz-adv-x="526" 
d="M323 666l203 -666h-86l-54 177h-248l-55 -177h-83q51 168 101 333t101 333h121zM155 248h213l-106 356zM413 853l-112 -126h-75l94 126h93z" />
    <glyph glyph-name="Acircumflex" unicode="&#xc2;" horiz-adv-x="526" 
d="M323 666l203 -666h-86l-54 177h-248l-55 -177h-83q51 168 101 333t101 333h121zM155 248h213l-106 356zM313 853l85 -126h-75l-59 89l-59 -89h-76l85 126h99z" />
    <glyph glyph-name="Atilde" unicode="&#xc3;" horiz-adv-x="526" 
d="M323 666l203 -666h-86l-54 177h-248l-55 -177h-83q51 168 101 333t101 333h121zM155 248h213l-106 356zM121 762q8 28 31 50.5t54 22.5q17 0 32 -6t28.5 -12.5t26 -12.5t25.5 -6q15 0 24.5 14.5t14.5 30.5l48 -22q-2 -13 -8 -27t-16.5 -26t-25.5 -20t-34 -8
q-18 0 -33.5 5.5t-29.5 12.5t-26 12.5t-23 5.5q-14 0 -26 -11t-19 -28q-2 1 -8.5 5t-14 8t-13.5 7.5t-7 4.5z" />
    <glyph glyph-name="Adieresis" unicode="&#xc4;" horiz-adv-x="526" 
d="M323 666l203 -666h-86l-54 177h-248l-55 -177h-83q51 168 101 333t101 333h121zM155 248h213l-106 356zM141 790q0 21 13 32t33 11t33.5 -11t13.5 -32t-13.5 -32t-33.5 -11t-33 11t-13 32zM293 790q0 21 13 32t33 11t33 -11t13 -32t-13 -32t-33 -11t-33 11t-13 32z" />
    <glyph glyph-name="Aring" unicode="&#xc5;" horiz-adv-x="526" 
d="M323 666l203 -666h-86l-54 177h-248l-55 -177h-83q51 168 101 333t101 333h121zM155 248h213l-106 356zM263 724q-40 0 -64 19t-24 52q0 32 24 52t64 20q39 0 63.5 -20t24.5 -52q0 -33 -24.5 -52t-63.5 -19zM263 764q13 0 21 8.5t8 22.5t-8 22t-21 8q-12 0 -21 -8t-9 -22
t9 -22.5t21 -8.5z" />
    <glyph glyph-name="AE" unicode="&#xc6;" horiz-adv-x="810" 
d="M753 666v-74h-288v-211h271v-71h-271v-236h298v-74h-380v169h-252l-90 -169h-89q88 168 176 333t177 333h448zM351 592q-48 -88 -93 -175.5t-92 -175.5h217v351h-32z" />
    <glyph glyph-name="Ccedilla" unicode="&#xc7;" horiz-adv-x="527" 
d="M309 676q47 0 88.5 -10.5t76.5 -29.5l-20 -69q-32 16 -67.5 26t-72.5 10q-81 0 -122.5 -45t-41.5 -120v-210q0 -75 41.5 -120t122.5 -45q51 0 86.5 11t70.5 31l20 -66q-32 -19 -71.5 -32.5t-88.5 -15.5q11 -15 19 -30.5t8 -32.5q0 -32 -21.5 -52.5t-62.5 -20.5
q-17 0 -35.5 4t-38.5 14l13 48q16 -7 27 -9t19 -2q32 0 32 24q0 10 -7.5 26t-18.5 33q-96 12 -146.5 74.5t-50.5 159.5v211q0 54 15.5 97.5t46.5 75t75.5 48.5t103.5 17z" />
    <glyph glyph-name="Egrave" unicode="&#xc8;" horiz-adv-x="521" 
d="M475 74v-74h-379v666h369v-74h-288v-210h271v-73h-271v-235h298zM149 853h95l94 -126h-77z" />
    <glyph glyph-name="Eacute" unicode="&#xc9;" horiz-adv-x="521" 
d="M475 74v-74h-379v666h369v-74h-288v-210h271v-73h-271v-235h298zM424 853l-112 -126h-75l94 126h93z" />
    <glyph glyph-name="Ecircumflex" unicode="&#xca;" horiz-adv-x="521" 
d="M475 74v-74h-379v666h369v-74h-288v-210h271v-73h-271v-235h298zM334 853l85 -126h-75l-59 89l-59 -89h-76l85 126h99z" />
    <glyph glyph-name="Edieresis" unicode="&#xcb;" horiz-adv-x="521" 
d="M475 74v-74h-379v666h369v-74h-288v-210h271v-73h-271v-235h298zM164 790q0 21 13 32t33 11t33.5 -11t13.5 -32t-13.5 -32t-33.5 -11t-33 11t-13 32zM316 790q0 21 13 32t33 11t33 -11t13 -32t-13 -32t-33 -11t-33 11t-13 32z" />
    <glyph glyph-name="Igrave" unicode="&#xcc;" horiz-adv-x="274" 
d="M177 666v-666h-81v666h81zM-12 853h95l94 -126h-77z" />
    <glyph glyph-name="Iacute" unicode="&#xcd;" horiz-adv-x="281" 
d="M180 666v-666h-81v666h81zM290 853l-112 -126h-75l94 126h93z" />
    <glyph glyph-name="Icircumflex" unicode="&#xce;" horiz-adv-x="274" 
d="M177 666v-666h-81v666h81zM188 853l85 -126h-75l-59 89l-59 -89h-76l85 126h99z" />
    <glyph glyph-name="Idieresis" unicode="&#xcf;" horiz-adv-x="274" 
d="M177 666v-666h-81v666h81zM16 790q0 21 13 32t33 11t33.5 -11t13.5 -32t-13.5 -32t-33.5 -11t-33 11t-13 32zM168 790q0 21 13 32t33 11t33 -11t13 -32t-13 -32t-33 -11t-33 11t-13 32z" />
    <glyph glyph-name="Eth" unicode="&#xd0;" horiz-adv-x="628" 
d="M8 367h88v299h225q58 0 102.5 -17t74.5 -48.5t45 -75.5t15 -98v-189q0 -53 -15 -97t-45 -75.5t-74.5 -48.5t-102.5 -17h-225v298h-88v69zM177 367h123v-69h-123v-225h141q80 0 119.5 45t39.5 120v189q0 75 -39.5 120t-119.5 45h-141v-225z" />
    <glyph glyph-name="Ntilde" unicode="&#xd1;" horiz-adv-x="688" 
d="M213 666l298 -568v568h81v-666h-117l-297 568v-568h-82v666h117zM202 762q8 28 31 50.5t54 22.5q17 0 32 -6t28.5 -12.5t26 -12.5t25.5 -6q15 0 24.5 14.5t14.5 30.5l48 -22q-2 -13 -8 -27t-16.5 -26t-25.5 -20t-34 -8q-18 0 -33.5 5.5t-29.5 12.5t-26 12.5t-23 5.5
q-14 0 -26 -11t-19 -28q-2 1 -8.5 5t-14 8t-13.5 7.5t-7 4.5z" />
    <glyph glyph-name="Ograve" unicode="&#xd2;" horiz-adv-x="619" 
d="M309 676q59 0 104 -17t75.5 -48.5t46 -75t15.5 -97.5v-210q0 -54 -15.5 -97.5t-46 -75t-75.5 -48.5t-104 -17q-57 0 -101.5 17t-75 48.5t-47 75t-16.5 97.5v210q0 54 15.5 97.5t46 75t75 48.5t103.5 17zM309 603q-80 0 -119.5 -45t-39.5 -120v-210q0 -75 39.5 -120
t119.5 -45q81 0 120.5 45t39.5 120v210q0 75 -39.5 120t-120.5 45zM163 853h95l94 -126h-77z" />
    <glyph glyph-name="Oacute" unicode="&#xd3;" horiz-adv-x="619" 
d="M309 676q59 0 104 -17t75.5 -48.5t46 -75t15.5 -97.5v-210q0 -54 -15.5 -97.5t-46 -75t-75.5 -48.5t-104 -17q-57 0 -101.5 17t-75 48.5t-47 75t-16.5 97.5v210q0 54 15.5 97.5t46 75t75 48.5t103.5 17zM309 603q-80 0 -119.5 -45t-39.5 -120v-210q0 -75 39.5 -120
t119.5 -45q81 0 120.5 45t39.5 120v210q0 75 -39.5 120t-120.5 45zM455 853l-112 -126h-75l94 126h93z" />
    <glyph glyph-name="Ocircumflex" unicode="&#xd4;" horiz-adv-x="619" 
d="M309 676q59 0 104 -17t75.5 -48.5t46 -75t15.5 -97.5v-210q0 -54 -15.5 -97.5t-46 -75t-75.5 -48.5t-104 -17q-57 0 -101.5 17t-75 48.5t-47 75t-16.5 97.5v210q0 54 15.5 97.5t46 75t75 48.5t103.5 17zM309 603q-80 0 -119.5 -45t-39.5 -120v-210q0 -75 39.5 -120
t119.5 -45q81 0 120.5 45t39.5 120v210q0 75 -39.5 120t-120.5 45zM359 853l85 -126h-75l-59 89l-59 -89h-76l85 126h99z" />
    <glyph glyph-name="Otilde" unicode="&#xd5;" horiz-adv-x="619" 
d="M309 676q59 0 104 -17t75.5 -48.5t46 -75t15.5 -97.5v-210q0 -54 -15.5 -97.5t-46 -75t-75.5 -48.5t-104 -17q-57 0 -101.5 17t-75 48.5t-47 75t-16.5 97.5v210q0 54 15.5 97.5t46 75t75 48.5t103.5 17zM309 603q-80 0 -119.5 -45t-39.5 -120v-210q0 -75 39.5 -120
t119.5 -45q81 0 120.5 45t39.5 120v210q0 75 -39.5 120t-120.5 45zM167 762q8 28 31 50.5t54 22.5q17 0 32 -6t28.5 -12.5t26 -12.5t25.5 -6q15 0 24.5 14.5t14.5 30.5l48 -22q-2 -13 -8 -27t-16.5 -26t-25.5 -20t-34 -8q-18 0 -33.5 5.5t-29.5 12.5t-26 12.5t-23 5.5
q-14 0 -26 -11t-19 -28q-2 1 -8.5 5t-14 8t-13.5 7.5t-7 4.5z" />
    <glyph glyph-name="Odieresis" unicode="&#xd6;" horiz-adv-x="619" 
d="M309 676q59 0 104 -17t75.5 -48.5t46 -75t15.5 -97.5v-210q0 -54 -15.5 -97.5t-46 -75t-75.5 -48.5t-104 -17q-57 0 -101.5 17t-75 48.5t-47 75t-16.5 97.5v210q0 54 15.5 97.5t46 75t75 48.5t103.5 17zM309 603q-80 0 -119.5 -45t-39.5 -120v-210q0 -75 39.5 -120
t119.5 -45q81 0 120.5 45t39.5 120v210q0 75 -39.5 120t-120.5 45zM187 790q0 21 13 32t33 11t33.5 -11t13.5 -32t-13.5 -32t-33.5 -11t-33 11t-13 32zM339 790q0 21 13 32t33 11t33 -11t13 -32t-13 -32t-33 -11t-33 11t-13 32z" />
    <glyph glyph-name="multiply" unicode="&#xd7;" 
d="M52 94l148 149l-145 146l48 48l146 -146l149 149l49 -48l-150 -149l148 -148l-48 -48l-148 148l-149 -148z" />
    <glyph glyph-name="Oslash" unicode="&#xd8;" horiz-adv-x="619" 
d="M48 -13l62 95q-41 59 -41 146v210q0 54 15.5 97.5t46 75t75 48.5t103.5 17q49 0 88.5 -12t68.5 -34l56 86l50 -35l-63 -97q41 -59 41 -146v-210q0 -54 -15.5 -97.5t-46 -75t-75.5 -48.5t-104 -17q-48 0 -87 12t-69 35l-55 -85zM309 603q-80 0 -119.5 -45t-39.5 -120v-210
q0 -39 10 -69l263 405q-42 39 -114 39zM469 438q0 19 -2.5 36t-7.5 32l-263 -404q41 -39 113 -39q81 0 120.5 45t39.5 120v210z" />
    <glyph glyph-name="Ugrave" unicode="&#xd9;" horiz-adv-x="604" 
d="M535 227q0 -53 -14.5 -97t-43.5 -75t-73 -48t-102 -17q-59 0 -102.5 17t-72.5 48t-43.5 75t-14.5 97v439h81v-438q0 -74 36.5 -119.5t115.5 -45.5q80 0 116 45t36 120v438h81v-439zM155 853h95l94 -126h-77z" />
    <glyph glyph-name="Uacute" unicode="&#xda;" horiz-adv-x="604" 
d="M535 227q0 -53 -14.5 -97t-43.5 -75t-73 -48t-102 -17q-59 0 -102.5 17t-72.5 48t-43.5 75t-14.5 97v439h81v-438q0 -74 36.5 -119.5t115.5 -45.5q80 0 116 45t36 120v438h81v-439zM447 853l-112 -126h-75l94 126h93z" />
    <glyph glyph-name="Ucircumflex" unicode="&#xdb;" horiz-adv-x="604" 
d="M535 227q0 -53 -14.5 -97t-43.5 -75t-73 -48t-102 -17q-59 0 -102.5 17t-72.5 48t-43.5 75t-14.5 97v439h81v-438q0 -74 36.5 -119.5t115.5 -45.5q80 0 116 45t36 120v438h81v-439zM352 853l85 -126h-75l-59 89l-59 -89h-76l85 126h99z" />
    <glyph glyph-name="Udieresis" unicode="&#xdc;" horiz-adv-x="604" 
d="M535 227q0 -53 -14.5 -97t-43.5 -75t-73 -48t-102 -17q-59 0 -102.5 17t-72.5 48t-43.5 75t-14.5 97v439h81v-438q0 -74 36.5 -119.5t115.5 -45.5q80 0 116 45t36 120v438h81v-439zM180 790q0 21 13 32t33 11t33.5 -11t13.5 -32t-13.5 -32t-33.5 -11t-33 11t-13 32z
M332 790q0 21 13 32t33 11t33 -11t13 -32t-13 -32t-33 -11t-33 11t-13 32z" />
    <glyph glyph-name="Yacute" unicode="&#xdd;" horiz-adv-x="508" 
d="M413 666h88l-206 -424v-242h-81v242l-207 424h89l159 -347zM402 853l-112 -126h-75l94 126h93z" />
    <glyph glyph-name="Thorn" unicode="&#xde;" horiz-adv-x="561" 
d="M177 666v-130h117q57 0 97.5 -9t66.5 -30.5t38 -57t12 -87.5v-30q0 -51 -12 -86.5t-37.5 -57.5t-66 -31.5t-98.5 -9.5q-32 0 -62.5 0.5t-54.5 2.5v-140h-81v666h81zM177 213q13 -1 31 -2q15 -1 36.5 -1.5t48.5 -0.5q73 0 103.5 25t30.5 88v29q0 63 -30.5 88t-102.5 25
h-117v-251z" />
    <glyph glyph-name="germandbls" unicode="&#xdf;" horiz-adv-x="521" 
d="M346 420q-22 -5 -35.5 -19t-13.5 -43v-19q0 -18 6.5 -28t20 -16.5t33 -12t46.5 -13.5q54 -17 79.5 -43t25.5 -75v-27q0 -37 -13 -63t-35.5 -42t-51.5 -23t-61 -7q-44 0 -86.5 11t-74.5 28l25 58q24 -14 58.5 -24t72.5 -10q39 0 66 15.5t27 54.5v18q0 18 -7.5 29.5t-21 20
t-31 14t-37.5 10.5q-33 9 -55.5 18.5t-36 23t-19 32.5t-5.5 47v34q0 49 21 74t52 32l46 10v68q-2 100 -94 100q-48 0 -72 -26t-24 -75v-552h-77v414h-67v65h67v74q0 79 44 125t129 46t129 -45.5t44 -122.5v-121z" />
    <glyph glyph-name="agrave" unicode="&#xe0;" horiz-adv-x="465" 
d="M315 207q-23 9 -53 14.5t-61 5.5q-42 0 -63 -15t-21 -59v-21q0 -35 22.5 -55.5t57.5 -20.5q38 0 68 19.5t50 48.5v83zM65 455q42 18 82.5 26t76.5 8q27 0 55.5 -6t52 -19.5t40 -36t19.5 -55.5q1 -11 1.5 -23t0.5 -24v-235q0 -11 0.5 -26.5t2.5 -29.5l4 -34h-75l-3 53
q-22 -23 -57 -43t-85 -20q-66 0 -103.5 37.5t-37.5 109.5v19q0 39 11.5 64.5t31.5 41.5t48.5 22.5t61.5 6.5q29 0 64 -5t59 -13v80q0 18 -8.5 31.5t-23.5 22.5t-34.5 13t-40.5 4q-31 0 -60.5 -7t-64.5 -23zM96 666h95l94 -126h-77z" />
    <glyph glyph-name="aacute" unicode="&#xe1;" horiz-adv-x="465" 
d="M315 207q-23 9 -53 14.5t-61 5.5q-42 0 -63 -15t-21 -59v-21q0 -35 22.5 -55.5t57.5 -20.5q38 0 68 19.5t50 48.5v83zM65 455q42 18 82.5 26t76.5 8q27 0 55.5 -6t52 -19.5t40 -36t19.5 -55.5q1 -11 1.5 -23t0.5 -24v-235q0 -11 0.5 -26.5t2.5 -29.5l4 -34h-75l-3 53
q-22 -23 -57 -43t-85 -20q-66 0 -103.5 37.5t-37.5 109.5v19q0 39 11.5 64.5t31.5 41.5t48.5 22.5t61.5 6.5q29 0 64 -5t59 -13v80q0 18 -8.5 31.5t-23.5 22.5t-34.5 13t-40.5 4q-31 0 -60.5 -7t-64.5 -23zM381 666l-112 -126h-75l94 126h93z" />
    <glyph glyph-name="acircumflex" unicode="&#xe2;" horiz-adv-x="465" 
d="M315 207q-23 9 -53 14.5t-61 5.5q-42 0 -63 -15t-21 -59v-21q0 -35 22.5 -55.5t57.5 -20.5q38 0 68 19.5t50 48.5v83zM65 455q42 18 82.5 26t76.5 8q27 0 55.5 -6t52 -19.5t40 -36t19.5 -55.5q1 -11 1.5 -23t0.5 -24v-235q0 -11 0.5 -26.5t2.5 -29.5l4 -34h-75l-3 53
q-22 -23 -57 -43t-85 -20q-66 0 -103.5 37.5t-37.5 109.5v19q0 39 11.5 64.5t31.5 41.5t48.5 22.5t61.5 6.5q29 0 64 -5t59 -13v80q0 18 -8.5 31.5t-23.5 22.5t-34.5 13t-40.5 4q-31 0 -60.5 -7t-64.5 -23zM283 666l85 -126h-75l-59 89l-59 -89h-76l85 126h99z" />
    <glyph glyph-name="atilde" unicode="&#xe3;" horiz-adv-x="465" 
d="M315 207q-23 9 -53 14.5t-61 5.5q-42 0 -63 -15t-21 -59v-21q0 -35 22.5 -55.5t57.5 -20.5q38 0 68 19.5t50 48.5v83zM65 455q42 18 82.5 26t76.5 8q27 0 55.5 -6t52 -19.5t40 -36t19.5 -55.5q1 -11 1.5 -23t0.5 -24v-235q0 -11 0.5 -26.5t2.5 -29.5l4 -34h-75l-3 53
q-22 -23 -57 -43t-85 -20q-66 0 -103.5 37.5t-37.5 109.5v19q0 39 11.5 64.5t31.5 41.5t48.5 22.5t61.5 6.5q29 0 64 -5t59 -13v80q0 18 -8.5 31.5t-23.5 22.5t-34.5 13t-40.5 4q-31 0 -60.5 -7t-64.5 -23zM93 575q8 28 31 50.5t54 22.5q17 0 32 -6t28.5 -12.5t26 -12.5
t25.5 -6q15 0 24.5 14.5t14.5 30.5l48 -22q-2 -13 -8 -27t-16.5 -26t-25.5 -20t-34 -8q-18 0 -33.5 5.5t-29.5 12.5t-26 12.5t-23 5.5q-14 0 -26 -11t-19 -28q-2 1 -8.5 5t-14 8t-13.5 7.5t-7 4.5z" />
    <glyph glyph-name="adieresis" unicode="&#xe4;" horiz-adv-x="465" 
d="M315 207q-23 9 -53 14.5t-61 5.5q-42 0 -63 -15t-21 -59v-21q0 -35 22.5 -55.5t57.5 -20.5q38 0 68 19.5t50 48.5v83zM65 455q42 18 82.5 26t76.5 8q27 0 55.5 -6t52 -19.5t40 -36t19.5 -55.5q1 -11 1.5 -23t0.5 -24v-235q0 -11 0.5 -26.5t2.5 -29.5l4 -34h-75l-3 53
q-22 -23 -57 -43t-85 -20q-66 0 -103.5 37.5t-37.5 109.5v19q0 39 11.5 64.5t31.5 41.5t48.5 22.5t61.5 6.5q29 0 64 -5t59 -13v80q0 18 -8.5 31.5t-23.5 22.5t-34.5 13t-40.5 4q-31 0 -60.5 -7t-64.5 -23zM110 603q0 21 13 32t33 11t33.5 -11t13.5 -32t-13.5 -32t-33.5 -11
t-33 11t-13 32zM262 603q0 21 13 32t33 11t33 -11t13 -32t-13 -32t-33 -11t-33 11t-13 32z" />
    <glyph glyph-name="aring" unicode="&#xe5;" horiz-adv-x="465" 
d="M315 207q-23 9 -53 14.5t-61 5.5q-42 0 -63 -15t-21 -59v-21q0 -35 22.5 -55.5t57.5 -20.5q38 0 68 19.5t50 48.5v83zM65 455q42 18 82.5 26t76.5 8q27 0 55.5 -6t52 -19.5t40 -36t19.5 -55.5q1 -11 1.5 -23t0.5 -24v-235q0 -11 0.5 -26.5t2.5 -29.5l4 -34h-75l-3 53
q-22 -23 -57 -43t-85 -20q-66 0 -103.5 37.5t-37.5 109.5v19q0 39 11.5 64.5t31.5 41.5t48.5 22.5t61.5 6.5q29 0 64 -5t59 -13v80q0 18 -8.5 31.5t-23.5 22.5t-34.5 13t-40.5 4q-31 0 -60.5 -7t-64.5 -23zM229 531q-40 0 -64 19t-24 52q0 32 24 52t64 20q39 0 63.5 -20
t24.5 -52q0 -33 -24.5 -52t-63.5 -19zM229 571q13 0 21 8.5t8 22.5t-8 22t-21 8q-12 0 -21 -8t-9 -22t9 -22.5t21 -8.5z" />
    <glyph glyph-name="ae" unicode="&#xe6;" horiz-adv-x="711" 
d="M67 455q80 34 151 34q19 0 39.5 -3t40.5 -9.5t37 -17t29 -26.5q20 24 53 39.5t78 15.5q90 0 132.5 -47t42.5 -127v-92h-274v-60q0 -28 10 -48t27 -33t39 -19t45 -6q41 0 71.5 9.5t53.5 22.5l20 -63q-32 -17 -71 -26t-84 -9q-49 0 -91 20t-64 62q-27 -38 -67 -60t-97 -22
q-31 0 -57.5 8.5t-46.5 25t-31.5 41.5t-11.5 59v32q0 77 43 112.5t111 35.5q29 0 64.5 -5t58.5 -13v67q0 19 -9 32.5t-24 22t-34.5 12.5t-40.5 4q-31 0 -60.5 -7t-64.5 -23zM318 219q-22 10 -53 15t-61 5q-42 0 -63.5 -19t-21.5 -63v-32q0 -32 23.5 -51t57.5 -19
q19 0 39.5 7t38 20.5t29 33t11.5 45.5v58zM595 286v30q0 49 -22.5 78.5t-73.5 29.5q-48 0 -75.5 -28t-27.5 -75v-35h199z" />
    <glyph glyph-name="ccedilla" unicode="&#xe7;" horiz-adv-x="407" 
d="M347 393q-23 13 -51 20.5t-64 7.5q-53 0 -81 -29.5t-28 -80.5v-143q0 -29 9.5 -49.5t25 -34t36 -20t43.5 -6.5q38 0 64 8.5t49 22.5l21 -61q-26 -16 -55 -25.5t-63 -12.5q10 -14 18 -29.5t8 -32.5q0 -32 -21.5 -52.5t-62.5 -20.5q-17 0 -35.5 4t-38.5 14l13 48
q16 -7 27 -9t19 -2q32 0 32 24q0 9 -7.5 25.5t-18.5 34.5q-28 5 -53.5 18t-45 34t-31 50t-11.5 67v152q0 83 49.5 129t131.5 46q42 0 75.5 -8t65.5 -26z" />
    <glyph glyph-name="egrave" unicode="&#xe8;" horiz-adv-x="438" 
d="M322 313q0 52 -22.5 81.5t-73.5 29.5t-77 -29.5t-26 -80.5v-28h199v27zM123 222v-60q0 -55 35 -80.5t86 -25.5q41 0 71.5 9.5t53.5 22.5l19 -63q-32 -17 -70.5 -26t-83.5 -9q-36 0 -70 9.5t-60.5 30.5t-42.5 54t-16 79v152q0 78 46.5 126t134.5 48t129.5 -48.5
t41.5 -126.5v-92h-274zM85 666h95l94 -126h-77z" />
    <glyph glyph-name="eacute" unicode="&#xe9;" horiz-adv-x="438" 
d="M322 313q0 52 -22.5 81.5t-73.5 29.5t-77 -29.5t-26 -80.5v-28h199v27zM123 222v-60q0 -55 35 -80.5t86 -25.5q41 0 71.5 9.5t53.5 22.5l19 -63q-32 -17 -70.5 -26t-83.5 -9q-36 0 -70 9.5t-60.5 30.5t-42.5 54t-16 79v152q0 78 46.5 126t134.5 48t129.5 -48.5
t41.5 -126.5v-92h-274zM368 666l-112 -126h-75l94 126h93z" />
    <glyph glyph-name="ecircumflex" unicode="&#xea;" horiz-adv-x="438" 
d="M322 313q0 52 -22.5 81.5t-73.5 29.5t-77 -29.5t-26 -80.5v-28h199v27zM123 222v-60q0 -55 35 -80.5t86 -25.5q41 0 71.5 9.5t53.5 22.5l19 -63q-32 -17 -70.5 -26t-83.5 -9q-36 0 -70 9.5t-60.5 30.5t-42.5 54t-16 79v152q0 78 46.5 126t134.5 48t129.5 -48.5
t41.5 -126.5v-92h-274zM273 666l85 -126h-75l-59 89l-59 -89h-76l85 126h99z" />
    <glyph glyph-name="edieresis" unicode="&#xeb;" horiz-adv-x="438" 
d="M322 313q0 52 -22.5 81.5t-73.5 29.5t-77 -29.5t-26 -80.5v-28h199v27zM123 222v-60q0 -55 35 -80.5t86 -25.5q41 0 71.5 9.5t53.5 22.5l19 -63q-32 -17 -70.5 -26t-83.5 -9q-36 0 -70 9.5t-60.5 30.5t-42.5 54t-16 79v152q0 78 46.5 126t134.5 48t129.5 -48.5
t41.5 -126.5v-92h-274zM102 603q0 21 13 32t33 11t33.5 -11t13.5 -32t-13.5 -32t-33.5 -11t-33 11t-13 32zM254 603q0 21 13 32t33 11t33 -11t13 -32t-13 -32t-33 -11t-33 11t-13 32z" />
    <glyph glyph-name="igrave" unicode="&#xec;" horiz-adv-x="217" 
d="M-39 666h95l94 -126h-77zM147 479v-479h-78v479h78z" />
    <glyph glyph-name="iacute" unicode="&#xed;" horiz-adv-x="217" 
d="M259 666l-112 -126h-75l94 126h93zM148 479v-479h-78v479h78z" />
    <glyph glyph-name="icircumflex" unicode="&#xee;" horiz-adv-x="217" 
d="M147 479v-479h-78v479h78zM159 666l85 -126h-75l-59 89l-59 -89h-76l85 126h99z" />
    <glyph glyph-name="idieresis" unicode="&#xef;" horiz-adv-x="217" 
d="M-12 603q0 21 13 32t33 11t33.5 -11t13.5 -32t-13.5 -32t-33.5 -11t-33 11t-13 32zM140 603q0 21 13 32t33 11t33 -11t13 -32t-13 -32t-33 -11t-33 11t-13 32zM147 479v-479h-78v479h78z" />
    <glyph glyph-name="eth" unicode="&#xf0;" horiz-adv-x="478" 
d="M265 744q20 -21 36 -40t30 -42l71 42l29 -50l-70 -41q36 -64 48.5 -136.5t12.5 -157.5v-156q0 -78 -49 -125.5t-139 -47.5q-41 0 -74.5 11.5t-58.5 32.5t-39 51t-16 67q-1 10 -1 20v20v123q0 78 49 126t139 48q42 0 72 -14.5t45 -30.5q-5 38 -16.5 72t-28.5 65l-73 -43
l-30 50l72 42q-15 24 -29.5 42.5t-31.5 36.5zM344 307q0 52 -29.5 82.5t-80.5 30.5q-52 0 -82 -31t-30 -82v-136q0 -52 30 -82.5t82 -30.5q51 0 80.5 29t29.5 78v142z" />
    <glyph glyph-name="ntilde" unicode="&#xf1;" 
d="M144 479l2 -37q31 17 67.5 32t81.5 15q63 0 100.5 -35.5t37.5 -117.5v-336h-78v327q0 52 -24.5 72.5t-58.5 20.5q-33 0 -66.5 -14t-56.5 -27v-379h-78v400l-2 79h75zM109 575q8 28 31 50.5t54 22.5q17 0 32 -6t28.5 -12.5t26 -12.5t25.5 -6q15 0 24.5 14.5t14.5 30.5
l48 -22q-2 -13 -8 -27t-16.5 -26t-25.5 -20t-34 -8q-18 0 -33.5 5.5t-29.5 12.5t-26 12.5t-23 5.5q-14 0 -26 -11t-19 -28q-2 1 -8.5 5t-14 8t-13.5 7.5t-7 4.5z" />
    <glyph glyph-name="ograve" unicode="&#xf2;" horiz-adv-x="467" 
d="M234 489q90 0 139 -48t49 -126v-152q0 -78 -49 -125.5t-139 -47.5q-43 0 -78 12.5t-59.5 35t-38 54.5t-13.5 71v152q0 78 49.5 126t139.5 48zM234 420q-52 0 -81.5 -31t-29.5 -82v-136q0 -52 29.5 -82.5t81.5 -30.5q51 0 80.5 30t29.5 83v136q0 52 -29.5 82.5t-80.5 30.5
zM82 666h95l94 -126h-77z" />
    <glyph glyph-name="oacute" unicode="&#xf3;" horiz-adv-x="467" 
d="M234 489q90 0 139 -48t49 -126v-152q0 -78 -49 -125.5t-139 -47.5q-43 0 -78 12.5t-59.5 35t-38 54.5t-13.5 71v152q0 78 49.5 126t139.5 48zM234 420q-52 0 -81.5 -31t-29.5 -82v-136q0 -52 29.5 -82.5t81.5 -30.5q51 0 80.5 30t29.5 83v136q0 52 -29.5 82.5t-80.5 30.5
zM377 666l-112 -126h-75l94 126h93z" />
    <glyph glyph-name="ocircumflex" unicode="&#xf4;" horiz-adv-x="467" 
d="M234 489q90 0 139 -48t49 -126v-152q0 -78 -49 -125.5t-139 -47.5q-43 0 -78 12.5t-59.5 35t-38 54.5t-13.5 71v152q0 78 49.5 126t139.5 48zM234 420q-52 0 -81.5 -31t-29.5 -82v-136q0 -52 29.5 -82.5t81.5 -30.5q51 0 80.5 30t29.5 83v136q0 52 -29.5 82.5t-80.5 30.5
zM284 666l85 -126h-75l-59 89l-59 -89h-76l85 126h99z" />
    <glyph glyph-name="otilde" unicode="&#xf5;" horiz-adv-x="467" 
d="M234 489q90 0 139 -48t49 -126v-152q0 -78 -49 -125.5t-139 -47.5q-43 0 -78 12.5t-59.5 35t-38 54.5t-13.5 71v152q0 78 49.5 126t139.5 48zM234 420q-52 0 -81.5 -31t-29.5 -82v-136q0 -52 29.5 -82.5t81.5 -30.5q51 0 80.5 30t29.5 83v136q0 52 -29.5 82.5t-80.5 30.5
zM92 575q8 28 31 50.5t54 22.5q17 0 32 -6t28.5 -12.5t26 -12.5t25.5 -6q15 0 24.5 14.5t14.5 30.5l48 -22q-2 -13 -8 -27t-16.5 -26t-25.5 -20t-34 -8q-18 0 -33.5 5.5t-29.5 12.5t-26 12.5t-23 5.5q-14 0 -26 -11t-19 -28q-2 1 -8.5 5t-14 8t-13.5 7.5t-7 4.5z" />
    <glyph glyph-name="odieresis" unicode="&#xf6;" horiz-adv-x="467" 
d="M234 489q90 0 139 -48t49 -126v-152q0 -78 -49 -125.5t-139 -47.5q-43 0 -78 12.5t-59.5 35t-38 54.5t-13.5 71v152q0 78 49.5 126t139.5 48zM234 420q-52 0 -81.5 -31t-29.5 -82v-136q0 -52 29.5 -82.5t81.5 -30.5q51 0 80.5 30t29.5 83v136q0 52 -29.5 82.5t-80.5 30.5
zM112 603q0 21 13 32t33 11t33.5 -11t13.5 -32t-13.5 -32t-33.5 -11t-33 11t-13 32zM264 603q0 21 13 32t33 11t33 -11t13 -32t-13 -32t-33 -11t-33 11t-13 32z" />
    <glyph glyph-name="divide" unicode="&#xf7;" 
d="M40 277h419v-68h-419v68zM196.273 420.924q0 25.3496 15.5996 38.0244t38.999 12.6748q22.4248 0 38.0244 -12.6748t15.5996 -38.0244t-15.5996 -38.5117t-38.0244 -13.1621q-23.3994 0 -38.999 13.1621t-15.5996 38.5117zM196.273 63.9238q0 25.3496 15.5996 38.0244
t38.999 12.6748q22.4248 0 38.0244 -12.6748t15.5996 -38.0244t-15.5996 -38.5117t-38.0244 -13.1621q-23.3994 0 -38.999 13.1621t-15.5996 38.5117z" />
    <glyph glyph-name="oslash" unicode="&#xf8;" horiz-adv-x="467" 
d="M234 489q71 0 118 -32l32 50l42 -27l-37 -58q33 -44 33 -107v-152q0 -78 -49 -125.5t-139 -47.5q-32 0 -59 7t-50 19l-42 -65l-41 28l44 69q-20 22 -30.5 51t-10.5 64v152q0 78 49.5 126t139.5 48zM234 420q-52 0 -81.5 -31t-29.5 -82v-136q0 -32 10 -53l177 275
q-30 27 -76 27zM344 307q0 20 -5 38l-174 -268q28 -19 69 -19q51 0 80.5 30t29.5 83v136z" />
    <glyph glyph-name="ugrave" unicode="&#xf9;" horiz-adv-x="492" 
d="M135 479v-315q0 -54 24 -80t67 -26q21 0 39.5 7t33.5 17.5t25.5 22t16.5 19.5v355h78v-389q2 -23 3.5 -45t3.5 -45h-76l-3 57q-8 -11 -21.5 -22.5t-31.5 -21.5t-40 -16.5t-46 -6.5q-31 0 -58.5 9.5t-48 29.5t-32.5 51.5t-12 75.5v323h78zM94 666h95l94 -126h-77z" />
    <glyph glyph-name="uacute" unicode="&#xfa;" horiz-adv-x="492" 
d="M135 479v-315q0 -54 24 -80t67 -26q21 0 39.5 7t33.5 17.5t25.5 22t16.5 19.5v355h78v-389q2 -23 3.5 -45t3.5 -45h-76l-3 57q-8 -11 -21.5 -22.5t-31.5 -21.5t-40 -16.5t-46 -6.5q-31 0 -58.5 9.5t-48 29.5t-32.5 51.5t-12 75.5v323h78zM385 666l-112 -126h-75l94 126
h93z" />
    <glyph glyph-name="ucircumflex" unicode="&#xfb;" horiz-adv-x="492" 
d="M135 479v-315q0 -54 24 -80t67 -26q21 0 39.5 7t33.5 17.5t25.5 22t16.5 19.5v355h78v-389q2 -23 3.5 -45t3.5 -45h-76l-3 57q-8 -11 -21.5 -22.5t-31.5 -21.5t-40 -16.5t-46 -6.5q-31 0 -58.5 9.5t-48 29.5t-32.5 51.5t-12 75.5v323h78zM288 666l85 -126h-75l-59 89
l-59 -89h-76l85 126h99z" />
    <glyph glyph-name="udieresis" unicode="&#xfc;" horiz-adv-x="492" 
d="M135 479v-315q0 -54 24 -80t67 -26q21 0 39.5 7t33.5 17.5t25.5 22t16.5 19.5v355h78v-389q2 -23 3.5 -45t3.5 -45h-76l-3 57q-8 -11 -21.5 -22.5t-31.5 -21.5t-40 -16.5t-46 -6.5q-31 0 -58.5 9.5t-48 29.5t-32.5 51.5t-12 75.5v323h78zM118 603q0 21 13 32t33 11
t33.5 -11t13.5 -32t-13.5 -32t-33.5 -11t-33 11t-13 32zM270 603q0 21 13 32t33 11t33 -11t13 -32t-13 -32t-33 -11t-33 11t-13 32z" />
    <glyph glyph-name="yacute" unicode="&#xfd;" horiz-adv-x="416" 
d="M90 479l116 -405l122 405h83l-165 -500q-15 -45 -36.5 -75.5t-48.5 -50t-57.5 -29t-63.5 -12.5l-14 60q56 9 93.5 34t54.5 77l10 30h-33l-146 466h85zM354 666l-112 -126h-75l94 126h93z" />
    <glyph glyph-name="thorn" unicode="&#xfe;" horiz-adv-x="479" 
d="M150 714v-271q30 17 67 31.5t77 14.5q29 0 54.5 -8.5t44.5 -27t30 -47.5t11 -70v-180q0 -39 -12.5 -70t-34.5 -52t-52.5 -32.5t-67.5 -11.5q-64 0 -117 25v-192h-78v891h78zM150 84q14 -11 44.5 -18.5t59.5 -7.5q53 0 77.5 30.5t24.5 81.5v157q0 26 -7 44t-18.5 29
t-26.5 15.5t-31 4.5q-33 0 -66 -13t-57 -27v-296z" />
    <glyph glyph-name="ydieresis" unicode="&#xff;" horiz-adv-x="416" 
d="M90 479l116 -405l122 405h83l-165 -500q-15 -45 -36.5 -75.5t-48.5 -50t-57.5 -29t-63.5 -12.5l-14 60q56 9 93.5 34t54.5 77l10 30h-33l-146 466h85zM85 603q0 21 13 32t33 11t33.5 -11t13.5 -32t-13.5 -32t-33.5 -11t-33 11t-13 32zM237 603q0 21 13 32t33 11t33 -11
t13 -32t-13 -32t-33 -11t-33 11t-13 32z" />
    <glyph glyph-name="Amacron" unicode="&#x100;" horiz-adv-x="526" 
d="M323 666l203 -666h-86l-54 177h-248l-55 -177h-83q51 168 101 333t101 333h121zM155 248h213l-106 356zM148 824h231v-58h-231v58z" />
    <glyph glyph-name="amacron" unicode="&#x101;" horiz-adv-x="465" 
d="M315 207q-23 9 -53 14.5t-61 5.5q-42 0 -63 -15t-21 -59v-21q0 -35 22.5 -55.5t57.5 -20.5q38 0 68 19.5t50 48.5v83zM65 455q42 18 82.5 26t76.5 8q27 0 55.5 -6t52 -19.5t40 -36t19.5 -55.5q1 -11 1.5 -23t0.5 -24v-235q0 -11 0.5 -26.5t2.5 -29.5l4 -34h-75l-3 53
q-22 -23 -57 -43t-85 -20q-66 0 -103.5 37.5t-37.5 109.5v19q0 39 11.5 64.5t31.5 41.5t48.5 22.5t61.5 6.5q29 0 64 -5t59 -13v80q0 18 -8.5 31.5t-23.5 22.5t-34.5 13t-40.5 4q-31 0 -60.5 -7t-64.5 -23zM120 639h231v-58h-231v58z" />
    <glyph glyph-name="Abreve" unicode="&#x102;" horiz-adv-x="526" 
d="M323 666l203 -666h-86l-54 177h-248l-55 -177h-83q51 168 101 333t101 333h121zM155 248h213l-106 356zM263 726q-56 0 -89.5 31.5t-37.5 95.5h63q1 -31 16 -50.5t48 -19.5t48 19.5t16 50.5h63q-4 -64 -37.5 -95.5t-89.5 -31.5z" />
    <glyph glyph-name="abreve" unicode="&#x103;" horiz-adv-x="465" 
d="M315 207q-23 9 -53 14.5t-61 5.5q-42 0 -63 -15t-21 -59v-21q0 -35 22.5 -55.5t57.5 -20.5q38 0 68 19.5t50 48.5v83zM65 455q42 18 82.5 26t76.5 8q27 0 55.5 -6t52 -19.5t40 -36t19.5 -55.5q1 -11 1.5 -23t0.5 -24v-235q0 -11 0.5 -26.5t2.5 -29.5l4 -34h-75l-3 53
q-22 -23 -57 -43t-85 -20q-66 0 -103.5 37.5t-37.5 109.5v19q0 39 11.5 64.5t31.5 41.5t48.5 22.5t61.5 6.5q29 0 64 -5t59 -13v80q0 18 -8.5 31.5t-23.5 22.5t-34.5 13t-40.5 4q-31 0 -60.5 -7t-64.5 -23zM230 539q-56 0 -89.5 31.5t-37.5 95.5h63q1 -31 16 -50.5t48 -19.5
t48 19.5t16 50.5h63q-4 -64 -37.5 -95.5t-89.5 -31.5z" />
    <glyph glyph-name="Aogonek" unicode="&#x104;" horiz-adv-x="526" 
d="M510 0q-8 -7 -18.5 -16t-20 -20t-16 -23.5t-6.5 -25.5q0 -18 9.5 -25.5t25.5 -7.5q14 0 24 3t20 7l13 -49q-17 -7 -34 -11t-37 -4q-36 0 -61.5 18t-25.5 60q0 32 18.5 56t39.5 38h-1l-54 177h-248l-55 -177h-83q51 168 101 333t101 333h121l203 -666h-16zM155 248h213
l-106 356z" />
    <glyph glyph-name="aogonek" unicode="&#x105;" horiz-adv-x="465" 
d="M65 455q42 18 82.5 26t76.5 8q27 0 55.5 -6t52 -19.5t40 -36t19.5 -55.5q1 -11 1.5 -23t0.5 -24v-235q0 -11 0.5 -26.5t2.5 -29.5l4 -34q-9 -6 -21 -15t-22 -20t-17 -24t-7 -26q0 -18 9.5 -25.5t25.5 -7.5q14 0 24 3t20 7l13 -49q-17 -7 -34 -11t-37 -4q-36 0 -61.5 18
t-25.5 60q0 32 18.5 56t39.5 38l-3 53q-22 -23 -57 -43t-85 -20q-66 0 -103.5 37.5t-37.5 109.5v19q0 39 11.5 64.5t31.5 41.5t48.5 22.5t61.5 6.5q29 0 62.5 -5t57.5 -13v80q0 37 -30.5 54t-73.5 17q-31 0 -60.5 -7t-64.5 -23zM312 207q-23 9 -51.5 14.5t-59.5 5.5
q-42 0 -61.5 -15t-19.5 -59v-21q0 -35 21 -55.5t56 -20.5q38 0 66.5 19.5t48.5 48.5v83z" />
    <glyph glyph-name="Cacute" unicode="&#x106;" horiz-adv-x="527" 
d="M309 676q47 0 88.5 -10.5t76.5 -29.5l-20 -69q-32 16 -67.5 26t-72.5 10q-81 0 -122.5 -45t-41.5 -120v-210q0 -75 41.5 -120t122.5 -45q51 0 86.5 11t70.5 31l20 -66q-36 -21 -80.5 -35t-101.5 -14q-58 0 -103 17t-75.5 48t-46 75t-15.5 97v211q0 54 15.5 97.5t46 75
t75 48.5t103.5 17zM431 853l-112 -126h-75l94 126h93z" />
    <glyph glyph-name="cacute" unicode="&#x107;" horiz-adv-x="407" 
d="M347 393q-23 13 -51 20.5t-64 7.5q-53 0 -81 -29.5t-28 -80.5v-143q0 -29 9.5 -49.5t25 -34t36 -20t43.5 -6.5q38 0 64 8.5t49 22.5l21 -61q-31 -19 -65.5 -28.5t-77.5 -9.5q-34 0 -66.5 10t-58.5 31.5t-42 54t-16 77.5v152q0 83 49.5 128.5t131.5 45.5q42 0 75.5 -7.5
t65.5 -25.5zM363 666l-112 -126h-75l94 126h93z" />
    <glyph glyph-name="Ccircumflex" unicode="&#x108;" horiz-adv-x="527" 
d="M309 676q47 0 88.5 -10.5t76.5 -29.5l-20 -69q-32 16 -67.5 26t-72.5 10q-81 0 -122.5 -45t-41.5 -120v-210q0 -75 41.5 -120t122.5 -45q51 0 86.5 11t70.5 31l20 -66q-36 -21 -80.5 -35t-101.5 -14q-58 0 -103 17t-75.5 48t-46 75t-15.5 97v211q0 54 15.5 97.5t46 75
t75 48.5t103.5 17zM330 853l85 -126h-75l-59 89l-59 -89h-76l85 126h99z" />
    <glyph glyph-name="ccircumflex" unicode="&#x109;" horiz-adv-x="407" 
d="M347 393q-23 13 -51 20.5t-64 7.5q-53 0 -81 -29.5t-28 -80.5v-143q0 -29 9.5 -49.5t25 -34t36 -20t43.5 -6.5q38 0 64 8.5t49 22.5l21 -61q-31 -19 -65.5 -28.5t-77.5 -9.5q-34 0 -66.5 10t-58.5 31.5t-42 54t-16 77.5v152q0 83 49.5 128.5t131.5 45.5q42 0 75.5 -7.5
t65.5 -25.5zM276 666l85 -126h-75l-59 89l-59 -89h-76l85 126h99z" />
    <glyph glyph-name="Cdotaccent" unicode="&#x10a;" horiz-adv-x="527" 
d="M309 676q47 0 88.5 -10.5t76.5 -29.5l-20 -69q-32 16 -67.5 26t-72.5 10q-81 0 -122.5 -45t-41.5 -120v-210q0 -75 41.5 -120t122.5 -45q51 0 86.5 11t70.5 31l20 -66q-36 -21 -80.5 -35t-101.5 -14q-58 0 -103 17t-75.5 48t-46 75t-15.5 97v211q0 54 15.5 97.5t46 75
t75 48.5t103.5 17zM236 790q0 21 13 32t33 11t33.5 -11t13.5 -32t-13.5 -32t-33.5 -11t-33 11t-13 32z" />
    <glyph glyph-name="cdotaccent" unicode="&#x10b;" horiz-adv-x="407" 
d="M347 393q-23 13 -51 20.5t-64 7.5q-53 0 -81 -29.5t-28 -80.5v-143q0 -29 9.5 -49.5t25 -34t36 -20t43.5 -6.5q38 0 64 8.5t49 22.5l21 -61q-31 -19 -65.5 -28.5t-77.5 -9.5q-34 0 -66.5 10t-58.5 31.5t-42 54t-16 77.5v152q0 83 49.5 128.5t131.5 45.5q42 0 75.5 -7.5
t65.5 -25.5zM175 603q0 21 13 32t33 11t33.5 -11t13.5 -32t-13.5 -32t-33.5 -11t-33 11t-13 32z" />
    <glyph glyph-name="Ccaron" unicode="&#x10c;" horiz-adv-x="527" 
d="M309 676q47 0 88.5 -10.5t76.5 -29.5l-20 -69q-32 16 -67.5 26t-72.5 10q-81 0 -122.5 -45t-41.5 -120v-210q0 -75 41.5 -120t122.5 -45q51 0 86.5 11t70.5 31l20 -66q-36 -21 -80.5 -35t-101.5 -14q-58 0 -103 17t-75.5 48t-46 75t-15.5 97v211q0 54 15.5 97.5t46 75
t75 48.5t103.5 17zM350 853h77l-94 -126h-99l-94 126h77l67 -93z" />
    <glyph glyph-name="ccaron" unicode="&#x10d;" horiz-adv-x="407" 
d="M347 393q-23 13 -51 20.5t-64 7.5q-53 0 -81 -29.5t-28 -80.5v-143q0 -29 9.5 -49.5t25 -34t36 -20t43.5 -6.5q38 0 64 8.5t49 22.5l21 -61q-31 -19 -65.5 -28.5t-77.5 -9.5q-34 0 -66.5 10t-58.5 31.5t-42 54t-16 77.5v152q0 83 49.5 128.5t131.5 45.5q42 0 75.5 -7.5
t65.5 -25.5zM289 666h77l-94 -126h-99l-94 126h77l67 -93z" />
    <glyph glyph-name="Dcaron" unicode="&#x10e;" horiz-adv-x="628" 
d="M321 666q58 0 102.5 -17t74.5 -48.5t45 -75.5t15 -98v-189q0 -53 -15 -97t-45 -75.5t-74.5 -48.5t-102.5 -17h-225v666h225zM177 73h141q80 0 119.5 45t39.5 120v189q0 75 -39.5 120t-119.5 45h-141v-519zM374 853h77l-94 -126h-99l-94 126h77l67 -93z" />
    <glyph glyph-name="dcaron" unicode="&#x10f;" horiz-adv-x="510" 
d="M417 540q26 17 42.5 41.5t16.5 67.5v17h71v-17q0 -64 -26.5 -99t-62.5 -54zM329 395q-21 12 -49 18.5t-54 6.5q-53 0 -78 -30t-25 -81v-139q0 -58 23 -85t67 -27q22 0 40.5 7t33.5 17.5t26 22t16 19.5v271zM407 90q2 -23 3.5 -45t3.5 -45h-75l-3 53q-7 -9 -20.5 -20
t-31.5 -20.5t-40 -16t-47 -6.5q-32 0 -59.5 10t-48 30t-32.5 51.5t-12 74.5v166q0 80 44.5 123.5t121.5 43.5q35 0 65 -7t53 -15v247h78v-624z" />
    <glyph glyph-name="Dcroat" unicode="&#x110;" horiz-adv-x="628" 
d="M8 367h88v299h225q58 0 102.5 -17t74.5 -48.5t45 -75.5t15 -98v-189q0 -53 -15 -97t-45 -75.5t-74.5 -48.5t-102.5 -17h-225v298h-88v69zM177 367h123v-69h-123v-225h141q80 0 119.5 45t39.5 120v189q0 75 -39.5 120t-119.5 45h-141v-225z" />
    <glyph glyph-name="dcroat" unicode="&#x111;" horiz-adv-x="480" 
d="M207 639h122v75h78v-75h74v-66h-74v-483q2 -23 3.5 -45t3.5 -45h-75l-3 53q-7 -9 -20.5 -20t-31.5 -20.5t-40 -16t-47 -6.5q-32 0 -59.5 10t-48 30t-32.5 51.5t-12 74.5v166q0 80 44.5 123.5t121.5 43.5q35 0 65 -7t53 -15v106h-122v66zM329 395q-21 12 -49 18.5t-54 6.5
q-53 0 -78 -30t-25 -81v-139q0 -58 23 -85t67 -27q22 0 40.5 7t33.5 17.5t26 22t16 19.5v271z" />
    <glyph glyph-name="Emacron" unicode="&#x112;" horiz-adv-x="521" 
d="M475 74v-74h-379v666h369v-74h-288v-210h271v-73h-271v-235h298zM164 826h231v-58h-231v58z" />
    <glyph glyph-name="emacron" unicode="&#x113;" horiz-adv-x="438" 
d="M322 313q0 52 -22.5 81.5t-73.5 29.5t-77 -29.5t-26 -80.5v-28h199v27zM123 222v-60q0 -55 35 -80.5t86 -25.5q41 0 71.5 9.5t53.5 22.5l19 -63q-32 -17 -70.5 -26t-83.5 -9q-36 0 -70 9.5t-60.5 30.5t-42.5 54t-16 79v152q0 78 46.5 126t134.5 48t129.5 -48.5
t41.5 -126.5v-92h-274zM106 639h231v-58h-231v58z" />
    <glyph glyph-name="Ebreve" unicode="&#x114;" horiz-adv-x="521" 
d="M475 74v-74h-379v666h369v-74h-288v-210h271v-73h-271v-235h298zM280 726q-56 0 -89.5 31.5t-37.5 95.5h63q1 -31 16 -50.5t48 -19.5t48 19.5t16 50.5h63q-4 -64 -37.5 -95.5t-89.5 -31.5z" />
    <glyph glyph-name="ebreve" unicode="&#x115;" horiz-adv-x="438" 
d="M322 313q0 52 -22.5 81.5t-73.5 29.5t-77 -29.5t-26 -80.5v-28h199v27zM123 222v-60q0 -55 35 -80.5t86 -25.5q41 0 71.5 9.5t53.5 22.5l19 -63q-32 -17 -70.5 -26t-83.5 -9q-36 0 -70 9.5t-60.5 30.5t-42.5 54t-16 79v152q0 78 46.5 126t134.5 48t129.5 -48.5
t41.5 -126.5v-92h-274zM222 539q-56 0 -89.5 31.5t-37.5 95.5h63q1 -31 16 -50.5t48 -19.5t48 19.5t16 50.5h63q-4 -64 -37.5 -95.5t-89.5 -31.5z" />
    <glyph glyph-name="Edotaccent" unicode="&#x116;" horiz-adv-x="521" 
d="M475 74v-74h-379v666h369v-74h-288v-210h271v-73h-271v-235h298zM234 790q0 21 13 32t33 11t33.5 -11t13.5 -32t-13.5 -32t-33.5 -11t-33 11t-13 32z" />
    <glyph glyph-name="edotaccent" unicode="&#x117;" horiz-adv-x="438" 
d="M322 313q0 52 -22.5 81.5t-73.5 29.5t-77 -29.5t-26 -80.5v-28h199v27zM123 222v-60q0 -55 35 -80.5t86 -25.5q41 0 71.5 9.5t53.5 22.5l19 -63q-32 -17 -70.5 -26t-83.5 -9q-36 0 -70 9.5t-60.5 30.5t-42.5 54t-16 79v152q0 78 46.5 126t134.5 48t129.5 -48.5
t41.5 -126.5v-92h-274zM176 603q0 21 13 32t33 11t33.5 -11t13.5 -32t-13.5 -32t-33.5 -11t-33 11t-13 32z" />
    <glyph glyph-name="Eogonek" unicode="&#x118;" horiz-adv-x="521" 
d="M445 0q-8 -7 -18.5 -16t-20 -20t-16 -23.5t-6.5 -25.5q0 -18 9.5 -25.5t25.5 -7.5q14 0 24 3t20 7l13 -49q-17 -7 -34 -11t-37 -4q-36 0 -61.5 18t-25.5 60q0 32 18.5 56t39.5 38h-280v666h369v-74h-288v-210h271v-73h-271v-235h298v-74h-30z" />
    <glyph glyph-name="eogonek" unicode="&#x119;" horiz-adv-x="438" 
d="M123 222v-60q0 -55 35 -80.5t86 -25.5q41 0 71.5 9.5t53.5 22.5l19 -62q-33 -16 -52 -40t-19 -50q0 -18 9.5 -25.5t25.5 -7.5q14 0 24 3t20 7l13 -49q-17 -7 -34 -11t-37 -4q-36 0 -61.5 18t-25.5 60q0 20 7 36t18 30q-20 -3 -42 -3q-36 0 -70 9.5t-60.5 30.5t-42.5 54
t-16 79v152q0 78 46.5 126t134.5 48t129.5 -48.5t41.5 -126.5v-92h-274zM322 313q0 52 -22.5 81.5t-73.5 29.5t-77 -29.5t-26 -80.5v-28h199v27z" />
    <glyph glyph-name="Ecaron" unicode="&#x11a;" horiz-adv-x="521" 
d="M475 74v-74h-379v666h369v-74h-288v-210h271v-73h-271v-235h298zM347 853h77l-94 -126h-99l-94 126h77l67 -93z" />
    <glyph glyph-name="ecaron" unicode="&#x11b;" horiz-adv-x="438" 
d="M322 313q0 52 -22.5 81.5t-73.5 29.5t-77 -29.5t-26 -80.5v-28h199v27zM123 222v-60q0 -55 35 -80.5t86 -25.5q41 0 71.5 9.5t53.5 22.5l19 -63q-32 -17 -70.5 -26t-83.5 -9q-36 0 -70 9.5t-60.5 30.5t-42.5 54t-16 79v152q0 78 46.5 126t134.5 48t129.5 -48.5
t41.5 -126.5v-92h-274zM286 666h77l-94 -126h-99l-94 126h77l67 -93z" />
    <glyph glyph-name="Gcircumflex" unicode="&#x11c;" horiz-adv-x="598" 
d="M317 603q-85 0 -126 -45t-41 -120v-209q0 -75 41.5 -120.5t122.5 -45.5q37 0 72.5 6.5t60.5 20.5v188h-153v74h234v-307q-17 -9 -37.5 -18.5t-46.5 -18t-58 -13.5t-72 -5q-61 0 -107 17t-76.5 48t-46 75t-15.5 97v211q0 54 15.5 97.5t46 75t76.5 48.5t106 17
q57 0 109 -12t87 -31l-26 -68q-35 18 -79.5 28t-86.5 10zM351 853l85 -126h-75l-59 89l-59 -89h-76l85 126h99z" />
    <glyph glyph-name="gcircumflex" unicode="&#x11d;" horiz-adv-x="474" 
d="M214 69q21 0 40 7t34 17.5t25.5 22t15.5 19.5v259q-21 11 -49 18.5t-54 7.5q-53 0 -78 -30.5t-25 -81.5v-127q0 -58 23.5 -85t67.5 -27zM329 59q-8 -9 -20.5 -19.5t-29.5 -19.5t-38 -14.5t-45 -5.5q-33 0 -60.5 10t-47.5 30.5t-31.5 52t-11.5 74.5v155q0 78 49.5 122.5
t132.5 44.5q34 0 63 -5t51.5 -12.5t39 -15.5t26.5 -14v-446q0 -92 -45.5 -137.5t-133.5 -45.5q-55 0 -97 13t-65 25l19 61q9 -4 23 -10t31.5 -11.5t38.5 -9.5t43 -4q108 0 108 119v63zM285 666l85 -126h-75l-59 89l-59 -89h-76l85 126h99z" />
    <glyph glyph-name="Gbreve" unicode="&#x11e;" horiz-adv-x="598" 
d="M317 603q-85 0 -126 -45t-41 -120v-209q0 -75 41.5 -120.5t122.5 -45.5q37 0 72.5 6.5t60.5 20.5v188h-153v74h234v-307q-17 -9 -37.5 -18.5t-46.5 -18t-58 -13.5t-72 -5q-61 0 -107 17t-76.5 48t-46 75t-15.5 97v211q0 54 15.5 97.5t46 75t76.5 48.5t106 17
q57 0 109 -12t87 -31l-26 -68q-35 18 -79.5 28t-86.5 10zM309 726q-56 0 -89.5 31.5t-37.5 95.5h63q1 -31 16 -50.5t48 -19.5t48 19.5t16 50.5h63q-4 -64 -37.5 -95.5t-89.5 -31.5z" />
    <glyph glyph-name="gbreve" unicode="&#x11f;" horiz-adv-x="474" 
d="M214 69q21 0 40 7t34 17.5t25.5 22t15.5 19.5v259q-21 11 -49 18.5t-54 7.5q-53 0 -78 -30.5t-25 -81.5v-127q0 -58 23.5 -85t67.5 -27zM329 59q-8 -9 -20.5 -19.5t-29.5 -19.5t-38 -14.5t-45 -5.5q-33 0 -60.5 10t-47.5 30.5t-31.5 52t-11.5 74.5v155q0 78 49.5 122.5
t132.5 44.5q34 0 63 -5t51.5 -12.5t39 -15.5t26.5 -14v-446q0 -92 -45.5 -137.5t-133.5 -45.5q-55 0 -97 13t-65 25l19 61q9 -4 23 -10t31.5 -11.5t38.5 -9.5t43 -4q108 0 108 119v63zM235 539q-56 0 -89.5 31.5t-37.5 95.5h63q1 -31 16 -50.5t48 -19.5t48 19.5t16 50.5h63
q-4 -64 -37.5 -95.5t-89.5 -31.5z" />
    <glyph glyph-name="Gdotaccent" unicode="&#x120;" horiz-adv-x="598" 
d="M317 603q-85 0 -126 -45t-41 -120v-209q0 -75 41.5 -120.5t122.5 -45.5q37 0 72.5 6.5t60.5 20.5v188h-153v74h234v-307q-17 -9 -37.5 -18.5t-46.5 -18t-58 -13.5t-72 -5q-61 0 -107 17t-76.5 48t-46 75t-15.5 97v211q0 54 15.5 97.5t46 75t76.5 48.5t106 17
q57 0 109 -12t87 -31l-26 -68q-35 18 -79.5 28t-86.5 10zM256 790q0 21 13 32t33 11t33.5 -11t13.5 -32t-13.5 -32t-33.5 -11t-33 11t-13 32z" />
    <glyph glyph-name="gdotaccent" unicode="&#x121;" horiz-adv-x="474" 
d="M214 69q21 0 40 7t34 17.5t25.5 22t15.5 19.5v259q-21 11 -49 18.5t-54 7.5q-53 0 -78 -30.5t-25 -81.5v-127q0 -58 23.5 -85t67.5 -27zM329 59q-8 -9 -20.5 -19.5t-29.5 -19.5t-38 -14.5t-45 -5.5q-33 0 -60.5 10t-47.5 30.5t-31.5 52t-11.5 74.5v155q0 78 49.5 122.5
t132.5 44.5q34 0 63 -5t51.5 -12.5t39 -15.5t26.5 -14v-446q0 -92 -45.5 -137.5t-133.5 -45.5q-55 0 -97 13t-65 25l19 61q9 -4 23 -10t31.5 -11.5t38.5 -9.5t43 -4q108 0 108 119v63zM190 603q0 21 13 32t33 11t33.5 -11t13.5 -32t-13.5 -32t-33.5 -11t-33 11t-13 32z" />
    <glyph glyph-name="Gcommaaccent" unicode="&#x122;" horiz-adv-x="598" 
d="M317 603q-85 0 -126 -45t-41 -120v-209q0 -75 41.5 -120.5t122.5 -45.5q37 0 72.5 6.5t60.5 20.5v188h-153v74h234v-307q-17 -9 -37.5 -18.5t-46.5 -18t-58 -13.5t-72 -5q-61 0 -107 17t-76.5 48t-46 75t-15.5 97v211q0 54 15.5 97.5t46 75t76.5 48.5t106 17
q57 0 109 -12t87 -31l-26 -68q-35 18 -79.5 28t-86.5 10zM226 -155q26 16 42 39.5t16 67.5v12h73v-10q0 -33 -8.5 -58t-22 -43.5t-31 -31.5t-34.5 -22z" />
    <glyph glyph-name="gcommaaccent" unicode="&#x123;" horiz-adv-x="474" 
d="M334 649q-14 -9 -26 -18.5t-20.5 -22t-13 -29t-4.5 -39.5v-13h-74v10q0 34 8.5 59t22 43.5t30.5 31t34 21.5zM214 69q21 0 40 7t34 17.5t25.5 22t15.5 19.5v259q-21 11 -49 18.5t-54 7.5q-53 0 -78 -30.5t-25 -81.5v-127q0 -58 23.5 -85t67.5 -27zM329 59
q-8 -9 -20.5 -19.5t-29.5 -19.5t-38 -14.5t-45 -5.5q-33 0 -60.5 10t-47.5 30.5t-31.5 52t-11.5 74.5v155q0 78 49.5 122.5t132.5 44.5q34 0 63 -5t51.5 -12.5t39 -15.5t26.5 -14v-446q0 -92 -45.5 -137.5t-133.5 -45.5q-55 0 -97 13t-65 25l19 61q9 -4 23 -10t31.5 -11.5
t38.5 -9.5t43 -4q108 0 108 119v63z" />
    <glyph glyph-name="Hcircumflex" unicode="&#x124;" horiz-adv-x="674" 
d="M496 0v307h-319v-307h-81v666h81v-285h319v285h82v-666h-82zM387 853l85 -126h-75l-59 89l-59 -89h-76l85 126h99z" />
    <glyph glyph-name="hcircumflex" unicode="&#x125;" horiz-adv-x="499" 
d="M70 714h78v-271q30 17 65.5 31.5t80.5 14.5q63 0 100.5 -35.5t37.5 -117.5v-336h-78v327q0 52 -24.5 72.5t-58.5 20.5q-33 0 -66.5 -14t-56.5 -27v-379h-78v714zM160 860l85 -126h-75l-59 89l-59 -89h-76l85 126h99z" />
    <glyph glyph-name="Hbar" unicode="&#x126;" horiz-adv-x="674" 
d="M31 551h65v115h81v-115h319v115h82v-115h66v-58h-66v-493h-82v307h-319v-307h-81v493h-65v58zM496 381v112h-319v-112h319z" />
    <glyph glyph-name="hbar" unicode="&#x127;" horiz-adv-x="499" 
d="M-1 639h71v75h78v-75h134v-66h-134v-130q30 17 65.5 31.5t80.5 14.5q63 0 100.5 -35.5t37.5 -117.5v-336h-78v327q0 52 -24.5 72.5t-58.5 20.5q-33 0 -66.5 -14t-56.5 -27v-379h-78v573h-71v66z" />
    <glyph glyph-name="Itilde" unicode="&#x128;" horiz-adv-x="274" 
d="M177 666v-666h-81v666h81zM-4 762q8 28 31 50.5t54 22.5q17 0 32 -6t28.5 -12.5t26 -12.5t25.5 -6q15 0 24.5 14.5t14.5 30.5l48 -22q-2 -13 -8 -27t-16.5 -26t-25.5 -20t-34 -8q-18 0 -33.5 5.5t-29.5 12.5t-26 12.5t-23 5.5q-14 0 -26 -11t-19 -28q-2 1 -8.5 5t-14 8
t-13.5 7.5t-7 4.5z" />
    <glyph glyph-name="itilde" unicode="&#x129;" horiz-adv-x="217" 
d="M-32 575q8 28 31 50.5t54 22.5q17 0 32 -6t28.5 -12.5t26 -12.5t25.5 -6q15 0 24.5 14.5t14.5 30.5l48 -22q-2 -13 -8 -27t-16.5 -26t-25.5 -20t-34 -8q-18 0 -33.5 5.5t-29.5 12.5t-26 12.5t-23 5.5q-14 0 -26 -11t-19 -28q-2 1 -8.5 5t-14 8t-13.5 7.5t-7 4.5zM147 479
v-479h-78v479h78z" />
    <glyph glyph-name="Imacron" unicode="&#x12a;" horiz-adv-x="274" 
d="M177 666v-666h-81v666h81zM22 822h231v-58h-231v58z" />
    <glyph glyph-name="imacron" unicode="&#x12b;" horiz-adv-x="217" 
d="M-6 639h231v-58h-231v58zM147 479v-479h-78v479h78z" />
    <glyph glyph-name="Ibreve" unicode="&#x12c;" horiz-adv-x="274" 
d="M177 666v-666h-81v666h81zM138 726q-56 0 -89.5 31.5t-37.5 95.5h63q1 -31 16 -50.5t48 -19.5t48 19.5t16 50.5h63q-4 -64 -37.5 -95.5t-89.5 -31.5z" />
    <glyph glyph-name="ibreve" unicode="&#x12d;" horiz-adv-x="217" 
d="M109 539q-56 0 -89.5 31.5t-37.5 95.5h63q1 -31 16 -50.5t48 -19.5t48 19.5t16 50.5h63q-4 -64 -37.5 -95.5t-89.5 -31.5zM147 479v-479h-78v479h78z" />
    <glyph glyph-name="Iogonek" unicode="&#x12e;" horiz-adv-x="281" 
d="M170 0q-8 -7 -18.5 -16t-20 -20t-16 -23.5t-6.5 -25.5q0 -18 9.5 -25.5t25.5 -7.5q14 0 24 3t20 7l13 -49q-17 -7 -34 -11t-37 -4q-36 0 -61.5 18t-25.5 60q0 32 18.5 56t39.5 38h-2v666h81v-666h-10z" />
    <glyph glyph-name="iogonek" unicode="&#x12f;" horiz-adv-x="217" 
d="M139 0q-8 -7 -18.5 -16t-20 -20t-16 -23.5t-6.5 -25.5q0 -18 9.5 -25.5t25.5 -7.5q14 0 24 3t20 7l13 -49q-17 -7 -34 -11t-37 -4q-36 0 -61.5 18t-25.5 60q0 32 18.5 56t39.5 38v479h78v-479h-9zM59 677q0 23 13.5 35t35.5 12q21 0 35.5 -12t14.5 -35t-14.5 -35
t-35.5 -12q-22 0 -35.5 12t-13.5 35z" />
    <glyph glyph-name="Idotaccent" unicode="&#x130;" horiz-adv-x="274" 
d="M177 666v-666h-81v666h81zM92 790q0 21 13 32t33 11t33.5 -11t13.5 -32t-13.5 -32t-33.5 -11t-33 11t-13 32z" />
    <glyph glyph-name="dotlessi" unicode="&#x131;" horiz-adv-x="217" 
d="M147 479v-479h-78v479h78z" />
    <glyph glyph-name="Jcircumflex" unicode="&#x134;" horiz-adv-x="274" 
d="M177 666v-597q0 -56 -13 -94t-33 -63t-44.5 -41t-47.5 -28l-40 58q18 12 35.5 25.5t31 33t22 46t8.5 63.5v597h81zM188 853l85 -126h-75l-59 89l-59 -89h-76l85 126h99z" />
    <glyph glyph-name="jcircumflex" unicode="&#x135;" horiz-adv-x="217" 
d="M147 479v-414q0 -60 -15 -102.5t-36.5 -72.5t-45.5 -49t-43 -30l-42 52q18 12 36.5 29t33.5 42t24.5 57t9.5 74v414h78zM158 666l85 -126h-75l-59 89l-59 -89h-76l85 126h99z" />
    <glyph glyph-name="Kcommaaccent" unicode="&#x136;" horiz-adv-x="580" 
d="M177 666v-353l300 353h95l-233 -282l246 -384h-100l-204 322l-104 -120v-202h-81v666h81zM227 -155q26 16 42 39.5t16 67.5v12h73v-10q0 -33 -8.5 -58t-22 -43.5t-31 -31.5t-34.5 -22z" />
    <glyph glyph-name="kcommaaccent" unicode="&#x137;" horiz-adv-x="445" 
d="M148 714v-451l204 216h93l-176 -190l193 -289h-92l-160 238l-62 -66v-172h-78v714h78zM158 -155q26 16 42 39.5t16 67.5v12h73v-10q0 -33 -8.5 -58t-22 -43.5t-31 -31.5t-34.5 -22z" />
    <glyph glyph-name="Lacute" unicode="&#x139;" horiz-adv-x="445" 
d="M177 666v-592h259v-74h-340v666h81zM287 853l-112 -126h-75l94 126h93z" />
    <glyph glyph-name="lacute" unicode="&#x13a;" horiz-adv-x="217" 
d="M148 714v-714h-78v714h78zM258 885l-112 -126h-75l94 126h93z" />
    <glyph glyph-name="Lcommaaccent" unicode="&#x13b;" horiz-adv-x="445" 
d="M177 666v-592h259v-74h-340v666h81zM181 -155q26 16 42 39.5t16 67.5v12h73v-10q0 -33 -8.5 -58t-22 -43.5t-31 -31.5t-34.5 -22z" />
    <glyph glyph-name="lcommaaccent" unicode="&#x13c;" horiz-adv-x="217" 
d="M148 714v-714h-78v714h78zM16 -155q26 16 42 39.5t16 67.5v12h73v-10q0 -33 -8.5 -58t-22 -43.5t-31 -31.5t-34.5 -22z" />
    <glyph glyph-name="Lcaron" unicode="&#x13d;" horiz-adv-x="445" 
d="M241 540q26 17 42.5 41.5t16.5 67.5v17h71v-17q0 -64 -26.5 -99t-62.5 -54zM177 666v-592h259v-74h-340v666h81z" />
    <glyph glyph-name="lcaron" unicode="&#x13e;" horiz-adv-x="251" 
d="M158 540q26 17 42.5 41.5t16.5 67.5v17h71v-17q0 -64 -26.5 -99t-62.5 -54zM148 714v-714h-78v714h78z" />
    <glyph glyph-name="Lslash" unicode="&#x141;" horiz-adv-x="445" 
d="M439 74v-74h-340v308l-80 -19v69l80 19v289h82v-270l147 36v-70l-147 -35v-253h258z" />
    <glyph glyph-name="lslash" unicode="&#x142;" horiz-adv-x="217" 
d="M147 329v-329h-77v310l-73 -17v67l73 17v337h77v-318l72 18v-67z" />
    <glyph glyph-name="Nacute" unicode="&#x143;" horiz-adv-x="688" 
d="M213 666l298 -568v568h81v-666h-117l-297 568v-568h-82v666h117zM488 853l-112 -126h-75l94 126h93z" />
    <glyph glyph-name="nacute" unicode="&#x144;" 
d="M144 479l2 -37q31 17 67.5 32t81.5 15q63 0 100.5 -35.5t37.5 -117.5v-336h-78v327q0 52 -24.5 72.5t-58.5 20.5q-33 0 -66.5 -14t-56.5 -27v-379h-78v400l-2 79h75zM397 666l-112 -126h-75l94 126h93z" />
    <glyph glyph-name="Ncommaaccent" unicode="&#x145;" horiz-adv-x="688" 
d="M213 666l298 -568v568h81v-666h-117l-297 568v-568h-82v666h117zM250 -155q26 16 42 39.5t16 67.5v12h73v-10q0 -33 -8.5 -58t-22 -43.5t-31 -31.5t-34.5 -22z" />
    <glyph glyph-name="ncommaaccent" unicode="&#x146;" 
d="M144 479l2 -37q31 17 67.5 32t81.5 15q63 0 100.5 -35.5t37.5 -117.5v-336h-78v327q0 52 -24.5 72.5t-58.5 20.5q-33 0 -66.5 -14t-56.5 -27v-379h-78v400l-2 79h75zM159 -155q26 16 42 39.5t16 67.5v12h73v-10q0 -33 -8.5 -58t-22 -43.5t-31 -31.5t-34.5 -22z" />
    <glyph glyph-name="Ncaron" unicode="&#x147;" horiz-adv-x="688" 
d="M213 666l298 -568v568h81v-666h-117l-297 568v-568h-82v666h117zM411 853h77l-94 -126h-99l-94 126h77l67 -93z" />
    <glyph glyph-name="ncaron" unicode="&#x148;" 
d="M144 479l2 -37q31 17 67.5 32t81.5 15q63 0 100.5 -35.5t37.5 -117.5v-336h-78v327q0 52 -24.5 72.5t-58.5 20.5q-33 0 -66.5 -14t-56.5 -27v-379h-78v400l-2 79h75zM316 666h77l-94 -126h-99l-94 126h77l67 -93z" />
    <glyph glyph-name="Eng" unicode="&#x14a;" horiz-adv-x="689" 
d="M213 666q75 -142 149 -282t149 -282v564h81v-629q0 -58 -13.5 -96t-34 -63.5t-45 -40.5t-45.5 -26l-37 54q16 10 32 21.5t29.5 27t23 36.5t12.5 50h-39l-298 568v-568h-81v666h117z" />
    <glyph glyph-name="eng" unicode="&#x14b;" 
d="M355 327q0 52 -24.5 72.5t-58.5 20.5q-33 0 -66.5 -14t-56.5 -27v-379h-78v400l-2 79h75l2 -37q31 17 67.5 32t81.5 15q63 0 100.5 -35.5t37.5 -117.5v-270q0 -60 -15 -102.5t-36.5 -72.5t-45.5 -49t-43 -30l-42 52q18 12 36.5 29t33.5 42t24.5 57t9.5 74v261v0z" />
    <glyph glyph-name="Omacron" unicode="&#x14c;" horiz-adv-x="619" 
d="M309 676q59 0 104 -17t75.5 -48.5t46 -75t15.5 -97.5v-210q0 -54 -15.5 -97.5t-46 -75t-75.5 -48.5t-104 -17q-57 0 -101.5 17t-75 48.5t-47 75t-16.5 97.5v210q0 54 15.5 97.5t46 75t75 48.5t103.5 17zM309 603q-80 0 -119.5 -45t-39.5 -120v-210q0 -75 39.5 -120
t119.5 -45q81 0 120.5 45t39.5 120v210q0 75 -39.5 120t-120.5 45zM193 824h231v-58h-231v58z" />
    <glyph glyph-name="omacron" unicode="&#x14d;" horiz-adv-x="467" 
d="M234 489q90 0 139 -48t49 -126v-152q0 -78 -49 -125.5t-139 -47.5q-43 0 -78 12.5t-59.5 35t-38 54.5t-13.5 71v152q0 78 49.5 126t139.5 48zM234 420q-52 0 -81.5 -31t-29.5 -82v-136q0 -52 29.5 -82.5t81.5 -30.5q51 0 80.5 30t29.5 83v136q0 52 -29.5 82.5t-80.5 30.5
zM119 639h231v-58h-231v58z" />
    <glyph glyph-name="Obreve" unicode="&#x14e;" horiz-adv-x="619" 
d="M309 676q59 0 104 -17t75.5 -48.5t46 -75t15.5 -97.5v-210q0 -54 -15.5 -97.5t-46 -75t-75.5 -48.5t-104 -17q-57 0 -101.5 17t-75 48.5t-47 75t-16.5 97.5v210q0 54 15.5 97.5t46 75t75 48.5t103.5 17zM309 603q-80 0 -119.5 -45t-39.5 -120v-210q0 -75 39.5 -120
t119.5 -45q81 0 120.5 45t39.5 120v210q0 75 -39.5 120t-120.5 45zM309 726q-56 0 -89.5 31.5t-37.5 95.5h63q1 -31 16 -50.5t48 -19.5t48 19.5t16 50.5h63q-4 -64 -37.5 -95.5t-89.5 -31.5z" />
    <glyph glyph-name="obreve" unicode="&#x14f;" horiz-adv-x="467" 
d="M234 489q90 0 139 -48t49 -126v-152q0 -78 -49 -125.5t-139 -47.5q-43 0 -78 12.5t-59.5 35t-38 54.5t-13.5 71v152q0 78 49.5 126t139.5 48zM234 420q-52 0 -81.5 -31t-29.5 -82v-136q0 -52 29.5 -82.5t81.5 -30.5q51 0 80.5 30t29.5 83v136q0 52 -29.5 82.5t-80.5 30.5
zM234 539q-56 0 -89.5 31.5t-37.5 95.5h63q1 -31 16 -50.5t48 -19.5t48 19.5t16 50.5h63q-4 -64 -37.5 -95.5t-89.5 -31.5z" />
    <glyph glyph-name="Ohungarumlaut" unicode="&#x150;" horiz-adv-x="619" 
d="M309 676q59 0 104 -17t75.5 -48.5t46 -75t15.5 -97.5v-210q0 -54 -15.5 -97.5t-46 -75t-75.5 -48.5t-104 -17q-57 0 -101.5 17t-75 48.5t-47 75t-16.5 97.5v210q0 54 15.5 97.5t46 75t75 48.5t103.5 17zM309 603q-80 0 -119.5 -45t-39.5 -120v-210q0 -75 39.5 -120
t119.5 -45q81 0 120.5 45t39.5 120v210q0 75 -39.5 120t-120.5 45zM371 853l-99 -126h-68l83 126h84zM502 853l-97 -126h-68l81 126h84z" />
    <glyph glyph-name="ohungarumlaut" unicode="&#x151;" horiz-adv-x="467" 
d="M234 489q90 0 139 -48t49 -126v-152q0 -78 -49 -125.5t-139 -47.5q-43 0 -78 12.5t-59.5 35t-38 54.5t-13.5 71v152q0 78 49.5 126t139.5 48zM234 420q-52 0 -81.5 -31t-29.5 -82v-136q0 -52 29.5 -82.5t81.5 -30.5q51 0 80.5 30t29.5 83v136q0 52 -29.5 82.5t-80.5 30.5
zM299 666l-99 -126h-68l83 126h84zM430 666l-97 -126h-68l81 126h84z" />
    <glyph glyph-name="OE" unicode="&#x152;" horiz-adv-x="894" 
d="M309 676q30 0 56.5 -6t49 -16t39 -23.5t25.5 -28.5v64h359v-74h-288v-211h271v-71h-271v-236h298v-74h-369v66q-23 -38 -69 -57t-101 -19q-57 0 -101.5 17t-75 48.5t-47 75t-16.5 97.5v210q0 54 15.5 97.5t46 75t75 48.5t103.5 17zM309 603q-80 0 -119.5 -45t-39.5 -120
v-210q0 -75 39.5 -120t119.5 -45q81 0 120.5 45t39.5 120v210q0 75 -39.5 120t-120.5 45z" />
    <glyph glyph-name="oe" unicode="&#x153;" horiz-adv-x="737" 
d="M422 222v-65q0 -25 10 -43.5t27 -31t40 -19t50 -6.5q41 0 68.5 9t50.5 22l20 -63q-32 -17 -70.5 -26t-83.5 -9t-85 15.5t-66 50.5q-22 -32 -59.5 -49t-89.5 -17q-42 0 -77 12t-59.5 34.5t-38.5 54.5t-14 72v152q0 78 49.5 126t139.5 48q51 0 88.5 -17t59.5 -48
q21 31 57 48t87 17q88 0 129 -48.5t41 -126.5v-92h-274zM234 420q-52 0 -82 -31t-30 -82v-136q0 -52 30 -82.5t82 -30.5q51 0 80.5 30t29.5 83v136q0 52 -29.5 82.5t-80.5 30.5zM622 313q0 52 -23 81.5t-74 29.5t-77 -29.5t-26 -78.5v-30h200v27z" />
    <glyph glyph-name="Racute" unicode="&#x154;" horiz-adv-x="578" 
d="M538 0h-97l-147 262h-10q-31 0 -59 1t-48 3v-266h-81v666h198q57 0 97.5 -9t66.5 -30.5t38 -57t12 -87.5v-39q0 -82 -32.5 -120t-98.5 -49zM177 337q18 -1 37 -2q17 -1 37.5 -1h41.5q73 0 103.5 24.5t30.5 87.5v35q0 63 -30.5 88t-102.5 25h-117v-257zM416 853l-112 -126
h-75l94 126h93z" />
    <glyph glyph-name="racute" unicode="&#x155;" horiz-adv-x="325" 
d="M144 479l3 -51q35 24 69.5 42.5t80.5 18.5q7 0 15 -2l-8 -78q-11 3 -25 3q-38 0 -71.5 -16.5t-59.5 -34.5v-361h-78v400l-2 79h76zM312 666l-112 -126h-75l94 126h93z" />
    <glyph glyph-name="Rcommaaccent" unicode="&#x156;" horiz-adv-x="578" 
d="M538 0h-97l-147 262h-10q-31 0 -59 1t-48 3v-266h-81v666h198q57 0 97.5 -9t66.5 -30.5t38 -57t12 -87.5v-39q0 -82 -32.5 -120t-98.5 -49zM177 337q18 -1 37 -2q17 -1 37.5 -1h41.5q73 0 103.5 24.5t30.5 87.5v35q0 63 -30.5 88t-102.5 25h-117v-257zM213 -155
q26 16 42 39.5t16 67.5v12h73v-10q0 -33 -8.5 -58t-22 -43.5t-31 -31.5t-34.5 -22z" />
    <glyph glyph-name="rcommaaccent" unicode="&#x157;" horiz-adv-x="325" 
d="M144 479l3 -51q35 24 69.5 42.5t80.5 18.5q7 0 15 -2l-8 -78q-11 3 -25 3q-38 0 -71.5 -16.5t-59.5 -34.5v-361h-78v400l-2 79h76zM16 -155q26 16 42 39.5t16 67.5v12h73v-10q0 -33 -8.5 -58t-22 -43.5t-31 -31.5t-34.5 -22z" />
    <glyph glyph-name="Rcaron" unicode="&#x158;" horiz-adv-x="578" 
d="M538 0h-97l-147 262h-10q-31 0 -59 1t-48 3v-266h-81v666h198q57 0 97.5 -9t66.5 -30.5t38 -57t12 -87.5v-39q0 -82 -32.5 -120t-98.5 -49zM177 337q18 -1 37 -2q17 -1 37.5 -1h41.5q73 0 103.5 24.5t30.5 87.5v35q0 63 -30.5 88t-102.5 25h-117v-257zM353 853h77
l-94 -126h-99l-94 126h77l67 -93z" />
    <glyph glyph-name="rcaron" unicode="&#x159;" horiz-adv-x="325" 
d="M144 479l3 -51q35 24 69.5 42.5t80.5 18.5q7 0 15 -2l-8 -78q-11 3 -25 3q-38 0 -71.5 -16.5t-59.5 -34.5v-361h-78v400l-2 79h76zM257 666h77l-94 -126h-99l-94 126h77l67 -93z" />
    <glyph glyph-name="Sacute" unicode="&#x15a;" horiz-adv-x="516" 
d="M75 110q34 -20 81.5 -33t94.5 -13q27 0 50.5 5.5t41.5 17.5t28.5 32t10.5 50v26q0 26 -11 42t-29.5 26.5t-43 17.5t-52.5 16q-49 15 -84.5 28t-59 31t-34.5 45t-11 71v36q0 47 17 79t45 52t65 28.5t76 8.5q54 0 96.5 -11t82.5 -31l-22 -70q-35 17 -75 27t-76 10
q-27 0 -50 -5t-40 -16.5t-27 -30t-10 -45.5v-21q0 -26 8.5 -42.5t26.5 -28t45 -20.5t63 -20q39 -12 72.5 -22.5t57.5 -27t37.5 -43.5t13.5 -72v-39q0 -50 -17 -84t-45 -55t-65.5 -30t-77.5 -9q-57 0 -110.5 14.5t-95.5 37.5zM404 853l-112 -126h-75l94 126h93z" />
    <glyph glyph-name="sacute" unicode="&#x15b;" horiz-adv-x="390" 
d="M317 396q-24 12 -51.5 20.5t-62.5 8.5q-40 0 -64.5 -16.5t-24.5 -49.5v-18q0 -18 8.5 -29.5t24.5 -19t38.5 -13.5t49.5 -13q64 -18 94.5 -44t30.5 -78v-24q0 -35 -13 -59.5t-35 -40.5t-52.5 -23t-64.5 -7q-45 0 -88.5 9.5t-76.5 28.5l25 58q26 -14 61.5 -24.5t76.5 -10.5
q40 0 67 17t27 56v15q0 19 -11.5 31t-29.5 20t-40.5 13.5t-44.5 11.5q-33 9 -56 19.5t-37.5 25t-21.5 34.5t-7 48v22q0 32 13 55.5t34.5 39t50 23t59.5 7.5q49 0 83 -9.5t64 -23.5zM340 666l-112 -126h-75l94 126h93z" />
    <glyph glyph-name="Scircumflex" unicode="&#x15c;" horiz-adv-x="516" 
d="M75 110q34 -20 81.5 -33t94.5 -13q27 0 50.5 5.5t41.5 17.5t28.5 32t10.5 50v26q0 26 -11 42t-29.5 26.5t-43 17.5t-52.5 16q-49 15 -84.5 28t-59 31t-34.5 45t-11 71v36q0 47 17 79t45 52t65 28.5t76 8.5q54 0 96.5 -11t82.5 -31l-22 -70q-35 17 -75 27t-76 10
q-27 0 -50 -5t-40 -16.5t-27 -30t-10 -45.5v-21q0 -26 8.5 -42.5t26.5 -28t45 -20.5t63 -20q39 -12 72.5 -22.5t57.5 -27t37.5 -43.5t13.5 -72v-39q0 -50 -17 -84t-45 -55t-65.5 -30t-77.5 -9q-57 0 -110.5 14.5t-95.5 37.5zM309 853l85 -126h-75l-59 89l-59 -89h-76l85 126
h99z" />
    <glyph glyph-name="scircumflex" unicode="&#x15d;" horiz-adv-x="390" 
d="M317 396q-24 12 -51.5 20.5t-62.5 8.5q-40 0 -64.5 -16.5t-24.5 -49.5v-18q0 -18 8.5 -29.5t24.5 -19t38.5 -13.5t49.5 -13q64 -18 94.5 -44t30.5 -78v-24q0 -35 -13 -59.5t-35 -40.5t-52.5 -23t-64.5 -7q-45 0 -88.5 9.5t-76.5 28.5l25 58q26 -14 61.5 -24.5t76.5 -10.5
q40 0 67 17t27 56v15q0 19 -11.5 31t-29.5 20t-40.5 13.5t-44.5 11.5q-33 9 -56 19.5t-37.5 25t-21.5 34.5t-7 48v22q0 32 13 55.5t34.5 39t50 23t59.5 7.5q49 0 83 -9.5t64 -23.5zM248 666l85 -126h-75l-59 89l-59 -89h-76l85 126h99z" />
    <glyph glyph-name="Scedilla" unicode="&#x15e;" horiz-adv-x="516" 
d="M75 109q34 -20 81.5 -33t94.5 -13q27 0 50.5 5.5t41.5 17.5t28.5 32t10.5 50v27q0 26 -11 42t-29.5 26.5t-43 17.5t-52.5 16q-49 15 -84.5 28t-59 31t-34.5 45t-11 71v36q0 47 17 79t45 52t65 28.5t76 8.5q54 0 96.5 -11t82.5 -31l-22 -70q-35 17 -75 27t-76 10
q-27 0 -50 -5t-40 -16.5t-27 -30t-10 -45.5v-21q0 -26 8.5 -42.5t26.5 -28t45 -20.5t63 -20q39 -12 72.5 -22.5t57.5 -27t37.5 -43.5t13.5 -72v-40q0 -42 -12.5 -73t-33.5 -52t-50 -33t-62 -16q11 -16 20 -30.5t9 -34.5q0 -32 -21.5 -52.5t-62.5 -20.5q-17 0 -36 4t-38 14
l13 48q16 -7 27 -9t19 -2q31 0 31 24q0 8 -6.5 23.5t-17.5 32.5q-53 2 -102.5 15.5t-87.5 35.5z" />
    <glyph glyph-name="scedilla" unicode="&#x15f;" horiz-adv-x="390" 
d="M317 396q-24 12 -51.5 20.5t-62.5 8.5q-40 0 -64.5 -16.5t-24.5 -49.5v-18q0 -18 8.5 -29.5t24.5 -19t38.5 -13.5t49.5 -13q64 -18 94.5 -44t30.5 -78v-24q0 -59 -34 -89t-88 -38q11 -15 19.5 -31.5t8.5 -33.5q0 -32 -21.5 -52.5t-62.5 -20.5q-17 0 -35.5 4t-38.5 14
l13 48q16 -7 27 -9t19 -2q32 0 32 24q0 9 -7 24.5t-17 32.5q-40 2 -78 11t-67 26l25 58q26 -14 61.5 -24.5t76.5 -10.5q40 0 67 17t27 56v15q0 19 -11.5 31t-29.5 20t-40.5 13.5t-44.5 11.5q-33 9 -56 19.5t-37.5 25t-21.5 34.5t-7 48v22q0 32 13 55.5t34.5 39t50 23
t59.5 7.5q49 0 83 -9.5t64 -23.5z" />
    <glyph glyph-name="Scaron" unicode="&#x160;" horiz-adv-x="516" 
d="M75 110q34 -20 81.5 -33t94.5 -13q27 0 50.5 5.5t41.5 17.5t28.5 32t10.5 50v26q0 26 -11 42t-29.5 26.5t-43 17.5t-52.5 16q-49 15 -84.5 28t-59 31t-34.5 45t-11 71v36q0 47 17 79t45 52t65 28.5t76 8.5q54 0 96.5 -11t82.5 -31l-22 -70q-35 17 -75 27t-76 10
q-27 0 -50 -5t-40 -16.5t-27 -30t-10 -45.5v-21q0 -26 8.5 -42.5t26.5 -28t45 -20.5t63 -20q39 -12 72.5 -22.5t57.5 -27t37.5 -43.5t13.5 -72v-39q0 -50 -17 -84t-45 -55t-65.5 -30t-77.5 -9q-57 0 -110.5 14.5t-95.5 37.5zM326 853h77l-94 -126h-99l-94 126h77l67 -93z
" />
    <glyph glyph-name="scaron" unicode="&#x161;" horiz-adv-x="390" 
d="M317 396q-24 12 -51.5 20.5t-62.5 8.5q-40 0 -64.5 -16.5t-24.5 -49.5v-18q0 -18 8.5 -29.5t24.5 -19t38.5 -13.5t49.5 -13q64 -18 94.5 -44t30.5 -78v-24q0 -35 -13 -59.5t-35 -40.5t-52.5 -23t-64.5 -7q-45 0 -88.5 9.5t-76.5 28.5l25 58q26 -14 61.5 -24.5t76.5 -10.5
q40 0 67 17t27 56v15q0 19 -11.5 31t-29.5 20t-40.5 13.5t-44.5 11.5q-33 9 -56 19.5t-37.5 25t-21.5 34.5t-7 48v22q0 32 13 55.5t34.5 39t50 23t59.5 7.5q49 0 83 -9.5t64 -23.5zM267 666h77l-94 -126h-99l-94 126h77l67 -93z" />
    <glyph glyph-name="Tcommaaccent" unicode="&#x162;" horiz-adv-x="462" 
d="M454 666v-74h-182v-592h-81v592h-183v74h446zM136 -155q26 16 42 39.5t16 67.5v12h73v-10q0 -33 -8.5 -58t-22 -43.5t-31 -31.5t-34.5 -22z" />
    <glyph glyph-name="Tcommaaccent" unicode="&#x21a;" horiz-adv-x="462" 
d="M454 666v-74h-182v-592h-81v592h-183v74h446zM136 -155q26 16 42 39.5t16 67.5v12h73v-10q0 -33 -8.5 -58t-22 -43.5t-31 -31.5t-34.5 -22z" />
    <glyph glyph-name="tcommaaccent" unicode="&#x163;" horiz-adv-x="305" 
d="M76 479v103l76 27v-130h131l-9 -66h-122v-289q0 -20 5.5 -33t14 -20.5t20 -10t23.5 -2.5q24 0 44.5 7.5t30.5 13.5l14 -61q-18 -11 -48 -19.5t-60 -8.5q-23 0 -44.5 5t-39 18t-28 35.5t-10.5 56.5v308h-67v66h69zM88 -155q26 16 42 39.5t16 67.5v12h73v-10
q0 -33 -8.5 -58t-22 -43.5t-31 -31.5t-34.5 -22z" />
    <glyph glyph-name="tcommaaccent" unicode="&#x21b;" horiz-adv-x="305" 
d="M76 479v103l76 27v-130h131l-9 -66h-122v-289q0 -20 5.5 -33t14 -20.5t20 -10t23.5 -2.5q24 0 44.5 7.5t30.5 13.5l14 -61q-18 -11 -48 -19.5t-60 -8.5q-23 0 -44.5 5t-39 18t-28 35.5t-10.5 56.5v308h-67v66h69zM88 -155q26 16 42 39.5t16 67.5v12h73v-10
q0 -33 -8.5 -58t-22 -43.5t-31 -31.5t-34.5 -22z" />
    <glyph glyph-name="Tcaron" unicode="&#x164;" horiz-adv-x="462" 
d="M454 666v-74h-182v-592h-81v592h-183v74h446zM299 853h77l-94 -126h-99l-94 126h77l67 -93z" />
    <glyph glyph-name="tcaron" unicode="&#x165;" horiz-adv-x="305" 
d="M180 563q26 17 42.5 41.5t16.5 67.5v17h71v-17q0 -64 -26.5 -99t-62.5 -54zM76 479v103l76 27v-130h131l-9 -66h-122v-289q0 -20 5.5 -33t14 -20.5t20 -10t23.5 -2.5q24 0 44.5 7.5t30.5 13.5l14 -61q-18 -11 -48 -19.5t-60 -8.5q-23 0 -44.5 5t-39 18t-28 35.5
t-10.5 56.5v308h-67v66h69z" />
    <glyph glyph-name="Tbar" unicode="&#x166;" horiz-adv-x="462" 
d="M454 666v-74h-182v-222h140v-74h-140v-296h-81v296h-140v74h140v222h-183v74h446z" />
    <glyph glyph-name="tbar" unicode="&#x167;" horiz-adv-x="305" 
d="M76 479v103l75 27v-130h132l-9 -66h-123v-121h102v-66h-102v-102q0 -20 5.5 -33t14.5 -20.5t20.5 -10t23.5 -2.5q22 0 44.5 8t30.5 13q3 -16 6.5 -31t7.5 -30q-18 -11 -48 -19.5t-60 -8.5q-21 0 -42 5t-37.5 17t-27.5 32.5t-13 52.5q-2 17 -2 34v36v59h-64v66h64v121h-67
v66h69z" />
    <glyph glyph-name="Utilde" unicode="&#x168;" horiz-adv-x="604" 
d="M535 227q0 -53 -14.5 -97t-43.5 -75t-73 -48t-102 -17q-59 0 -102.5 17t-72.5 48t-43.5 75t-14.5 97v439h81v-438q0 -74 36.5 -119.5t115.5 -45.5q80 0 116 45t36 120v438h81v-439zM160 762q8 28 31 50.5t54 22.5q17 0 32 -6t28.5 -12.5t26 -12.5t25.5 -6q15 0 24.5 14.5
t14.5 30.5l48 -22q-2 -13 -8 -27t-16.5 -26t-25.5 -20t-34 -8q-18 0 -33.5 5.5t-29.5 12.5t-26 12.5t-23 5.5q-14 0 -26 -11t-19 -28q-2 1 -8.5 5t-14 8t-13.5 7.5t-7 4.5z" />
    <glyph glyph-name="utilde" unicode="&#x169;" horiz-adv-x="492" 
d="M135 479v-315q0 -54 24 -80t67 -26q21 0 39.5 7t33.5 17.5t25.5 22t16.5 19.5v355h78v-389q2 -23 3.5 -45t3.5 -45h-76l-3 57q-8 -11 -21.5 -22.5t-31.5 -21.5t-40 -16.5t-46 -6.5q-31 0 -58.5 9.5t-48 29.5t-32.5 51.5t-12 75.5v323h78zM98 575q8 28 31 50.5t54 22.5
q17 0 32 -6t28.5 -12.5t26 -12.5t25.5 -6q15 0 24.5 14.5t14.5 30.5l48 -22q-2 -13 -8 -27t-16.5 -26t-25.5 -20t-34 -8q-18 0 -33.5 5.5t-29.5 12.5t-26 12.5t-23 5.5q-14 0 -26 -11t-19 -28q-2 1 -8.5 5t-14 8t-13.5 7.5t-7 4.5z" />
    <glyph glyph-name="Umacron" unicode="&#x16a;" horiz-adv-x="604" 
d="M535 227q0 -53 -14.5 -97t-43.5 -75t-73 -48t-102 -17q-59 0 -102.5 17t-72.5 48t-43.5 75t-14.5 97v439h81v-438q0 -74 36.5 -119.5t115.5 -45.5q80 0 116 45t36 120v438h81v-439zM187 823h231v-58h-231v58z" />
    <glyph glyph-name="umacron" unicode="&#x16b;" horiz-adv-x="492" 
d="M135 479v-315q0 -54 24 -80t67 -26q21 0 39.5 7t33.5 17.5t25.5 22t16.5 19.5v355h78v-389q2 -23 3.5 -45t3.5 -45h-76l-3 57q-8 -11 -21.5 -22.5t-31.5 -21.5t-40 -16.5t-46 -6.5q-31 0 -58.5 9.5t-48 29.5t-32.5 51.5t-12 75.5v323h78zM124 639h231v-58h-231v58z" />
    <glyph glyph-name="Ubreve" unicode="&#x16c;" horiz-adv-x="604" 
d="M535 227q0 -53 -14.5 -97t-43.5 -75t-73 -48t-102 -17q-59 0 -102.5 17t-72.5 48t-43.5 75t-14.5 97v439h81v-438q0 -74 36.5 -119.5t115.5 -45.5q80 0 116 45t36 120v438h81v-439zM302 726q-56 0 -89.5 31.5t-37.5 95.5h63q1 -31 16 -50.5t48 -19.5t48 19.5t16 50.5h63
q-4 -64 -37.5 -95.5t-89.5 -31.5z" />
    <glyph glyph-name="ubreve" unicode="&#x16d;" horiz-adv-x="492" 
d="M135 479v-315q0 -54 24 -80t67 -26q21 0 39.5 7t33.5 17.5t25.5 22t16.5 19.5v355h78v-389q2 -23 3.5 -45t3.5 -45h-76l-3 57q-8 -11 -21.5 -22.5t-31.5 -21.5t-40 -16.5t-46 -6.5q-31 0 -58.5 9.5t-48 29.5t-32.5 51.5t-12 75.5v323h78zM239 539q-56 0 -89.5 31.5
t-37.5 95.5h63q1 -31 16 -50.5t48 -19.5t48 19.5t16 50.5h63q-4 -64 -37.5 -95.5t-89.5 -31.5z" />
    <glyph glyph-name="Uring" unicode="&#x16e;" horiz-adv-x="604" 
d="M535 227q0 -53 -14.5 -97t-43.5 -75t-73 -48t-102 -17q-59 0 -102.5 17t-72.5 48t-43.5 75t-14.5 97v439h81v-438q0 -74 36.5 -119.5t115.5 -45.5q80 0 116 45t36 120v438h81v-439zM302 718q-40 0 -64 19t-24 52q0 32 24 52t64 20q39 0 63.5 -20t24.5 -52
q0 -33 -24.5 -52t-63.5 -19zM302 758q13 0 21 8.5t8 22.5t-8 22t-21 8q-12 0 -21 -8t-9 -22t9 -22.5t21 -8.5z" />
    <glyph glyph-name="uring" unicode="&#x16f;" horiz-adv-x="492" 
d="M135 479v-315q0 -54 24 -80t67 -26q21 0 39.5 7t33.5 17.5t25.5 22t16.5 19.5v355h78v-389q2 -23 3.5 -45t3.5 -45h-76l-3 57q-8 -11 -21.5 -22.5t-31.5 -21.5t-40 -16.5t-46 -6.5q-31 0 -58.5 9.5t-48 29.5t-32.5 51.5t-12 75.5v323h78zM241 531q-40 0 -64 19t-24 52
q0 32 24 52t64 20q39 0 63.5 -20t24.5 -52q0 -33 -24.5 -52t-63.5 -19zM241 571q13 0 21 8.5t8 22.5t-8 22t-21 8q-12 0 -21 -8t-9 -22t9 -22.5t21 -8.5z" />
    <glyph glyph-name="Uhungarumlaut" unicode="&#x170;" horiz-adv-x="604" 
d="M535 227q0 -53 -14.5 -97t-43.5 -75t-73 -48t-102 -17q-59 0 -102.5 17t-72.5 48t-43.5 75t-14.5 97v439h81v-438q0 -74 36.5 -119.5t115.5 -45.5q80 0 116 45t36 120v438h81v-439zM365 853l-99 -126h-68l83 126h84zM496 853l-97 -126h-68l81 126h84z" />
    <glyph glyph-name="uhungarumlaut" unicode="&#x171;" horiz-adv-x="492" 
d="M135 479v-315q0 -54 24 -80t67 -26q21 0 39.5 7t33.5 17.5t25.5 22t16.5 19.5v355h78v-389q2 -23 3.5 -45t3.5 -45h-76l-3 57q-8 -11 -21.5 -22.5t-31.5 -21.5t-40 -16.5t-46 -6.5q-31 0 -58.5 9.5t-48 29.5t-32.5 51.5t-12 75.5v323h78zM302 666l-99 -126h-68l83 126h84
zM433 666l-97 -126h-68l81 126h84z" />
    <glyph glyph-name="Uogonek" unicode="&#x172;" horiz-adv-x="604" 
d="M535 227q0 -94 -45 -156t-135 -76q-16 -14 -32 -35t-16 -45q0 -18 9.5 -25.5t25.5 -7.5q14 0 24 3t20 7l13 -49q-17 -7 -34 -11t-37 -4q-36 0 -61.5 18t-25.5 60q0 28 13.5 49t31.5 35q-55 3 -95.5 21t-67.5 49t-40.5 73.5t-13.5 93.5v439h81v-438q0 -74 36.5 -119.5
t115.5 -45.5q80 0 116 45t36 120v438h81v-439z" />
    <glyph glyph-name="uogonek" unicode="&#x173;" horiz-adv-x="492" 
d="M135 479v-315q0 -54 24 -80t67 -26q21 0 40 7t34 17.5t25.5 22t16.5 19.5v355h77v-389q2 -23 3.5 -45t3.5 -45q-9 -5 -20.5 -14t-22 -20t-17.5 -24t-7 -27q0 -18 9.5 -25.5t25.5 -7.5q14 0 24 3t20 7l13 -49q-17 -7 -34 -11t-37 -4q-36 0 -61.5 18t-25.5 60q0 32 18.5 56
t39.5 38l-3 57q-8 -11 -22 -22.5t-32 -21.5t-40 -16.5t-46 -6.5q-31 0 -58.5 9.5t-48 29.5t-32.5 51.5t-12 75.5v323h78z" />
    <glyph glyph-name="Wcircumflex" unicode="&#x174;" horiz-adv-x="905" 
d="M453 605l-144 -605h-126l-168 666h87l145 -606l144 606h125l144 -606l145 606h85l-166 -666h-126zM502 853l85 -126h-75l-59 89l-59 -89h-76l85 126h99z" />
    <glyph glyph-name="wcircumflex" unicode="&#x175;" horiz-adv-x="713" 
d="M91 479l106 -423l103 423h112l103 -423l106 423h83l-132 -479h-113l-103 423l-103 -423h-113l-132 479h83zM405 666l85 -126h-75l-59 89l-59 -89h-76l85 126h99z" />
    <glyph glyph-name="Ycircumflex" unicode="&#x176;" horiz-adv-x="508" 
d="M413 666h88l-206 -424v-242h-81v242l-207 424h89l159 -347zM304 853l85 -126h-75l-59 89l-59 -89h-76l85 126h99z" />
    <glyph glyph-name="ycircumflex" unicode="&#x177;" horiz-adv-x="416" 
d="M90 479l116 -405l122 405h83l-165 -500q-15 -45 -36.5 -75.5t-48.5 -50t-57.5 -29t-63.5 -12.5l-14 60q56 9 93.5 34t54.5 77l10 30h-33l-146 466h85zM257 666l85 -126h-75l-59 89l-59 -89h-76l85 126h99z" />
    <glyph glyph-name="Ydieresis" unicode="&#x178;" horiz-adv-x="508" 
d="M413 666h88l-206 -424v-242h-81v242l-207 424h89l159 -347zM132 790q0 21 13 32t33 11t33.5 -11t13.5 -32t-13.5 -32t-33.5 -11t-33 11t-13 32zM284 790q0 21 13 32t33 11t33 -11t13 -32t-13 -32t-33 -11t-33 11t-13 32z" />
    <glyph glyph-name="Zacute" unicode="&#x179;" horiz-adv-x="488" 
d="M30 62l310 530h-294v74h391v-63l-309 -529h318v-74h-416v62zM386 853l-112 -126h-75l94 126h93z" />
    <glyph glyph-name="zacute" unicode="&#x17a;" horiz-adv-x="388" 
d="M355 479v-51l-227 -362h232v-66h-327v49l229 364h-225v66h318zM344 666l-112 -126h-75l94 126h93z" />
    <glyph glyph-name="Zdotaccent" unicode="&#x17b;" horiz-adv-x="488" 
d="M30 62l310 530h-294v74h391v-63l-309 -529h318v-74h-416v62zM198 790q0 21 13 32t33 11t33.5 -11t13.5 -32t-13.5 -32t-33.5 -11t-33 11t-13 32z" />
    <glyph glyph-name="zdotaccent" unicode="&#x17c;" horiz-adv-x="388" 
d="M355 479v-51l-227 -362h232v-66h-327v49l229 364h-225v66h318zM151 603q0 21 13 32t33 11t33.5 -11t13.5 -32t-13.5 -32t-33.5 -11t-33 11t-13 32z" />
    <glyph glyph-name="Zcaron" unicode="&#x17d;" horiz-adv-x="488" 
d="M30 62l310 530h-294v74h391v-63l-309 -529h318v-74h-416v62zM318 853h77l-94 -126h-99l-94 126h77l67 -93z" />
    <glyph glyph-name="zcaron" unicode="&#x17e;" horiz-adv-x="388" 
d="M355 479v-51l-227 -362h232v-66h-327v49l229 364h-225v66h318zM262 666h77l-94 -126h-99l-94 126h77l67 -93z" />
    <glyph glyph-name="longs" unicode="&#x17f;" horiz-adv-x="237" 
d="M74 479v78q0 81 41 124t119 43q31 0 55 -7.5t34 -12.5q-4 -16 -8 -31t-9 -31q-11 4 -26.5 8.5t-35.5 4.5q-92 0 -92 -98v-557h-78v413h-67v66h67z" />
    <glyph glyph-name="florin" unicode="&#x192;" 
d="M431 410q-11 4 -30.5 8t-38.5 4q-48 0 -70 -19t-22 -68v-15h125l-9 -60h-116v-114q0 -52 -21.5 -82t-51 -45.5t-61 -21t-50.5 -7.5l-12 61q16 3 36 7t38 15t30 31.5t12 55.5v100h-67v60h67v19q0 84 44.5 117t124.5 33q26 0 52 -7.5t36 -12.5z" />
    <glyph glyph-name="Aringacute" unicode="&#x1fa;" horiz-adv-x="526" 
d="M323 666l203 -666h-86l-54 177h-248l-55 -177h-83q51 168 101 333t101 333h121zM155 248h213l-106 356zM263 724q-40 0 -64 19t-24 52q0 32 24 52t64 20q39 0 63.5 -20t24.5 -52q0 -33 -24.5 -52t-63.5 -19zM263 764q13 0 21 8.5t8 22.5t-8 22t-21 8q-12 0 -21 -8t-9 -22
t9 -22.5t21 -8.5zM410 1023l-112 -126h-75l94 126h93z" />
    <glyph glyph-name="aringacute" unicode="&#x1fb;" horiz-adv-x="465" 
d="M315 207q-23 9 -53 14.5t-61 5.5q-42 0 -63 -15t-21 -59v-21q0 -35 22.5 -55.5t57.5 -20.5q38 0 68 19.5t50 48.5v83zM65 455q42 18 82.5 26t76.5 8q27 0 55.5 -6t52 -19.5t40 -36t19.5 -55.5q1 -11 1.5 -23t0.5 -24v-235q0 -11 0.5 -26.5t2.5 -29.5l4 -34h-75l-3 53
q-22 -23 -57 -43t-85 -20q-66 0 -103.5 37.5t-37.5 109.5v19q0 39 11.5 64.5t31.5 41.5t48.5 22.5t61.5 6.5q29 0 64 -5t59 -13v80q0 18 -8.5 31.5t-23.5 22.5t-34.5 13t-40.5 4q-31 0 -60.5 -7t-64.5 -23zM229 531q-40 0 -64 19t-24 52q0 32 24 52t64 20q39 0 63.5 -20
t24.5 -52q0 -33 -24.5 -52t-63.5 -19zM229 571q13 0 21 8.5t8 22.5t-8 22t-21 8q-12 0 -21 -8t-9 -22t9 -22.5t21 -8.5zM377 832l-112 -126h-75l94 126h93z" />
    <glyph glyph-name="AEacute" unicode="&#x1fc;" horiz-adv-x="810" 
d="M753 666v-74h-288v-211h271v-71h-271v-236h298v-74h-380v169h-252l-90 -169h-89q88 168 176 333t177 333h448zM351 592q-48 -88 -93 -175.5t-92 -175.5h217v351h-32zM624 853l-112 -126h-75l94 126h93z" />
    <glyph glyph-name="aeacute" unicode="&#x1fd;" horiz-adv-x="711" 
d="M67 455q80 34 151 34q19 0 39.5 -3t40.5 -9.5t37 -17t29 -26.5q20 24 53 39.5t78 15.5q90 0 132.5 -47t42.5 -127v-92h-274v-60q0 -28 10 -48t27 -33t39 -19t45 -6q41 0 71.5 9.5t53.5 22.5l20 -63q-32 -17 -71 -26t-84 -9q-49 0 -91 20t-64 62q-27 -38 -67 -60t-97 -22
q-31 0 -57.5 8.5t-46.5 25t-31.5 41.5t-11.5 59v32q0 77 43 112.5t111 35.5q29 0 64.5 -5t58.5 -13v67q0 19 -9 32.5t-24 22t-34.5 12.5t-40.5 4q-31 0 -60.5 -7t-64.5 -23zM318 219q-22 10 -53 15t-61 5q-42 0 -63.5 -19t-21.5 -63v-32q0 -32 23.5 -51t57.5 -19
q19 0 39.5 7t38 20.5t29 33t11.5 45.5v58zM595 286v30q0 49 -22.5 78.5t-73.5 29.5q-48 0 -75.5 -28t-27.5 -75v-35h199zM504 666l-112 -126h-75l94 126h93z" />
    <glyph glyph-name="Oslashacute" unicode="&#x1fe;" horiz-adv-x="619" 
d="M461 853l-112 -126h-75l94 126h93zM48 -13l62 95q-41 59 -41 146v210q0 54 15.5 97.5t46 75t75 48.5t103.5 17q49 0 88.5 -12t68.5 -34l56 86l50 -35l-63 -97q41 -59 41 -146v-210q0 -54 -15.5 -97.5t-46 -75t-75.5 -48.5t-104 -17q-48 0 -87 12t-69 35l-55 -85zM309 603
q-80 0 -119.5 -45t-39.5 -120v-210q0 -39 10 -69l263 405q-42 39 -114 39zM469 438q0 19 -2.5 36t-7.5 32l-263 -404q41 -39 113 -39q81 0 120.5 45t39.5 120v210z" />
    <glyph glyph-name="oslashacute" unicode="&#x1ff;" horiz-adv-x="467" 
d="M375 666l-112 -126h-75l94 126h93zM234 489q71 0 118 -32l32 50l42 -27l-37 -58q33 -44 33 -107v-152q0 -78 -49 -125.5t-139 -47.5q-32 0 -59 7t-50 19l-42 -65l-41 28l44 69q-20 22 -30.5 51t-10.5 64v152q0 78 49.5 126t139.5 48zM234 420q-52 0 -81.5 -31t-29.5 -82
v-136q0 -32 10 -53l177 275q-30 27 -76 27zM344 307q0 20 -5 38l-174 -268q28 -19 69 -19q51 0 80.5 30t29.5 83v136z" />
    <glyph glyph-name="Scommaaccent" unicode="&#x218;" horiz-adv-x="516" 
d="M75 110q34 -20 81.5 -33t94.5 -13q27 0 50.5 5.5t41.5 17.5t28.5 32t10.5 50v26q0 26 -11 42t-29.5 26.5t-43 17.5t-52.5 16q-49 15 -84.5 28t-59 31t-34.5 45t-11 71v36q0 47 17 79t45 52t65 28.5t76 8.5q54 0 96.5 -11t82.5 -31l-22 -70q-35 17 -75 27t-76 10
q-27 0 -50 -5t-40 -16.5t-27 -30t-10 -45.5v-21q0 -26 8.5 -42.5t26.5 -28t45 -20.5t63 -20q39 -12 72.5 -22.5t57.5 -27t37.5 -43.5t13.5 -72v-39q0 -50 -17 -84t-45 -55t-65.5 -30t-77.5 -9q-57 0 -110.5 14.5t-95.5 37.5zM164 -155q26 16 42 39.5t16 67.5v12h73v-10
q0 -33 -8.5 -58t-22 -43.5t-31 -31.5t-34.5 -22z" />
    <glyph glyph-name="scommaaccent" unicode="&#x219;" horiz-adv-x="390" 
d="M317 396q-24 12 -51.5 20.5t-62.5 8.5q-40 0 -64.5 -16.5t-24.5 -49.5v-18q0 -18 8.5 -29.5t24.5 -19t38.5 -13.5t49.5 -13q64 -18 94.5 -44t30.5 -78v-24q0 -35 -13 -59.5t-35 -40.5t-52.5 -23t-64.5 -7q-45 0 -88.5 9.5t-76.5 28.5l25 58q26 -14 61.5 -24.5t76.5 -10.5
q40 0 67 17t27 56v15q0 19 -11.5 31t-29.5 20t-40.5 13.5t-44.5 11.5q-33 9 -56 19.5t-37.5 25t-21.5 34.5t-7 48v22q0 32 13 55.5t34.5 39t50 23t59.5 7.5q49 0 83 -9.5t64 -23.5zM111 -155q26 16 42 39.5t16 67.5v12h73v-10q0 -33 -8.5 -58t-22 -43.5t-31 -31.5t-34.5 -22
z" />
    <glyph glyph-name="circumflex" unicode="&#x2c6;" 
d="M299 666l85 -126h-75l-59 89l-59 -89h-76l85 126h99z" />
    <glyph glyph-name="caron" unicode="&#x2c7;" 
d="M316 666h77l-94 -126h-99l-94 126h77l67 -93z" />
    <glyph glyph-name="breve" unicode="&#x2d8;" 
d="M250 539q-56 0 -89.5 31.5t-37.5 95.5h63q1 -31 16 -50.5t48 -19.5t48 19.5t16 50.5h63q-4 -64 -37.5 -95.5t-89.5 -31.5z" />
    <glyph glyph-name="dotaccent" unicode="&#x2d9;" 
d="M203 603q0 21 13 32t33 11t33.5 -11t13.5 -32t-13.5 -32t-33.5 -11t-33 11t-13 32z" />
    <glyph glyph-name="ring" unicode="&#x2da;" 
d="M250 531q-40 0 -64 19t-24 52q0 32 24 52t64 20q39 0 63.5 -20t24.5 -52q0 -33 -24.5 -52t-63.5 -19zM250 571q13 0 21 8.5t8 22.5t-8 22t-21 8q-12 0 -21 -8t-9 -22t9 -22.5t21 -8.5z" />
    <glyph glyph-name="ogonek" unicode="&#x2db;" 
d="M309 0q-8 -7 -18.5 -16t-20 -20t-16 -23.5t-6.5 -25.5q0 -18 9.5 -25.5t25.5 -7.5q14 0 24 3t20 7l13 -49q-17 -7 -34 -11t-37 -4q-36 0 -61.5 18t-25.5 60q0 32 18.5 56t39.5 38h69v0z" />
    <glyph glyph-name="tilde" unicode="&#x2dc;" 
d="M108 575q8 28 31 50.5t54 22.5q17 0 32 -6t28.5 -12.5t26 -12.5t25.5 -6q15 0 24.5 14.5t14.5 30.5l48 -22q-2 -13 -8 -27t-16.5 -26t-25.5 -20t-34 -8q-18 0 -33.5 5.5t-29.5 12.5t-26 12.5t-23 5.5q-14 0 -26 -11t-19 -28q-2 1 -8.5 5t-14 8t-13.5 7.5t-7 4.5z" />
    <glyph glyph-name="hungarumlaut" unicode="&#x2dd;" 
d="M265 666l-99 -126h-68l83 126h84zM396 666l-97 -126h-68l81 126h84z" />
    <glyph glyph-name="commaaccent" unicode="&#x326;" horiz-adv-x="320" 
d="M90 -155q26 16 42 39.5t16 67.5v12h73v-10q0 -33 -8.5 -58t-22 -43.5t-31 -31.5t-34.5 -22z" />
    <glyph glyph-name="Delta" unicode="&#x394;" 
d="M305 666l203 -666h-516l202 666h111zM249 604q-40 -134 -80 -267t-81 -268h321q-40 135 -80 268t-80 267z" />
    <glyph glyph-name="Delta" unicode="&#x2206;" 
d="M305 666l203 -666h-516l202 666h111zM249 604q-40 -134 -80 -267t-81 -268h321q-40 135 -80 268t-80 267z" />
    <glyph glyph-name="Omega" unicode="&#x3a9;" horiz-adv-x="628" 
d="M314 676q58 0 103 -17t75.5 -48.5t46 -75t15.5 -97.5v-196q0 -29 -5 -57t-16.5 -52.5t-29.5 -42.5t-43 -27l139 3v-66h-250v73q63 10 93.5 53t30.5 109v203q0 74 -40.5 119.5t-118.5 45.5q-81 0 -120.5 -45t-39.5 -120v-203q0 -64 31.5 -108t93.5 -54v-73h-250v66l138 -3
q-26 9 -43.5 27t-29 42.5t-16.5 52.5t-5 57v196q0 54 15.5 97.5t46 75t75.5 48.5t104 17z" />
    <glyph glyph-name="Omega" unicode="&#x2126;" horiz-adv-x="628" 
d="M314 676q58 0 103 -17t75.5 -48.5t46 -75t15.5 -97.5v-196q0 -29 -5 -57t-16.5 -52.5t-29.5 -42.5t-43 -27l139 3v-66h-250v73q63 10 93.5 53t30.5 109v203q0 74 -40.5 119.5t-118.5 45.5q-81 0 -120.5 -45t-39.5 -120v-203q0 -64 31.5 -108t93.5 -54v-73h-250v66l138 -3
q-26 9 -43.5 27t-29 42.5t-16.5 52.5t-5 57v196q0 54 15.5 97.5t46 75t75.5 48.5t104 17z" />
    <glyph glyph-name="pi" unicode="&#x3c0;" horiz-adv-x="525" 
d="M521 479l-4 -68h-92v-312q0 -20 6.5 -27.5t22.5 -7.5q8 0 17 1.5t16 3.5l5 -65q-11 -3 -27 -6.5t-36 -3.5q-41 0 -61.5 18t-20.5 59v340h-174v-411h-78v411h-93v68h519z" />
    <glyph glyph-name="Wgrave" unicode="&#x1e80;" horiz-adv-x="905" 
d="M453 605l-144 -605h-126l-168 666h87l145 -606l144 606h125l144 -606l145 606h85l-166 -666h-126zM303 853h95l94 -126h-77z" />
    <glyph glyph-name="wgrave" unicode="&#x1e81;" horiz-adv-x="713" 
d="M91 479l106 -423l103 423h112l103 -423l106 423h83l-132 -479h-113l-103 423l-103 -423h-113l-132 479h83zM208 666h95l94 -126h-77z" />
    <glyph glyph-name="Wacute" unicode="&#x1e82;" horiz-adv-x="905" 
d="M453 605l-144 -605h-126l-168 666h87l145 -606l144 606h125l144 -606l145 606h85l-166 -666h-126zM600 853l-112 -126h-75l94 126h93z" />
    <glyph glyph-name="wacute" unicode="&#x1e83;" horiz-adv-x="713" 
d="M91 479l106 -423l103 423h112l103 -423l106 423h83l-132 -479h-113l-103 423l-103 -423h-113l-132 479h83zM505 666l-112 -126h-75l94 126h93z" />
    <glyph glyph-name="Wdieresis" unicode="&#x1e84;" horiz-adv-x="905" 
d="M453 605l-144 -605h-126l-168 666h87l145 -606l144 606h125l144 -606l145 606h85l-166 -666h-126zM330 790q0 21 13 32t33 11t33.5 -11t13.5 -32t-13.5 -32t-33.5 -11t-33 11t-13 32zM482 790q0 21 13 32t33 11t33 -11t13 -32t-13 -32t-33 -11t-33 11t-13 32z" />
    <glyph glyph-name="wdieresis" unicode="&#x1e85;" horiz-adv-x="713" 
d="M91 479l106 -423l103 423h112l103 -423l106 423h83l-132 -479h-113l-103 423l-103 -423h-113l-132 479h83zM233 603q0 21 13 32t33 11t33.5 -11t13.5 -32t-13.5 -32t-33.5 -11t-33 11t-13 32zM385 603q0 21 13 32t33 11t33 -11t13 -32t-13 -32t-33 -11t-33 11t-13 32z
" />
    <glyph glyph-name="Ygrave" unicode="&#x1ef2;" horiz-adv-x="508" 
d="M413 666h88l-206 -424v-242h-81v242l-207 424h89l159 -347zM110 853h95l94 -126h-77z" />
    <glyph glyph-name="ygrave" unicode="&#x1ef3;" horiz-adv-x="416" 
d="M90 479l116 -405l122 405h83l-165 -500q-15 -45 -36.5 -75.5t-48.5 -50t-57.5 -29t-63.5 -12.5l-14 60q56 9 93.5 34t54.5 77l10 30h-33l-146 466h85zM67 666h95l94 -126h-77z" />
    <glyph glyph-name="endash" unicode="&#x2013;" horiz-adv-x="559" 
d="M70 276h419v-68h-419v68z" />
    <glyph glyph-name="emdash" unicode="&#x2014;" horiz-adv-x="769" 
d="M70 276h629v-68h-629v68z" />
    <glyph glyph-name="quoteleft" unicode="&#x2018;" horiz-adv-x="247" 
d="M177 725q9 -14 17.5 -27t16.5 -27q-29 -16 -45.5 -39t-16.5 -65v-75h-75v54q0 45 8 74.5t22 49.5t33 32.5t40 22.5z" />
    <glyph glyph-name="quoteright" unicode="&#x2019;" horiz-adv-x="247" 
d="M69 481q-8 14 -16.5 27t-17.5 27q29 16 45.5 38.5t16.5 65.5v75h75v-86q-2 -35 -11.5 -59t-23.5 -41.5t-32 -28.5t-36 -18z" />
    <glyph glyph-name="quotesinglbase" unicode="&#x201a;" horiz-adv-x="247" 
d="M66 -120q-8 14 -16.5 27t-17.5 27q29 16 45.5 38.5t16.5 65.5v75h75v-86q-2 -35 -11.5 -59t-23.5 -41.5t-32 -28.5t-36 -18z" />
    <glyph glyph-name="quotedblleft" unicode="&#x201c;" horiz-adv-x="407" 
d="M337 725q9 -14 17.5 -27t16.5 -27q-29 -16 -45.5 -39t-16.5 -65v-75h-75v54q0 45 8 74.5t22 49.5t33 32.5t40 22.5zM177 725q9 -14 17.5 -27t16.5 -27q-29 -16 -45.5 -39t-16.5 -65v-75h-75v54q0 45 8 74.5t22 49.5t33 32.5t40 22.5z" />
    <glyph glyph-name="quotedblright" unicode="&#x201d;" horiz-adv-x="407" 
d="M229 481q-8 14 -16.5 27t-17.5 27q29 16 45.5 38.5t16.5 65.5v75h75v-86q-2 -35 -11.5 -59t-23.5 -41.5t-32 -28.5t-36 -18zM69 481q-8 14 -16.5 27t-17.5 27q29 16 45.5 38.5t16.5 65.5v75h75v-86q-2 -35 -11.5 -59t-23.5 -41.5t-32 -28.5t-36 -18z" />
    <glyph glyph-name="quotedblbase" unicode="&#x201e;" horiz-adv-x="405" 
d="M223 -120q-8 14 -16.5 27t-17.5 27q29 16 45.5 38.5t16.5 65.5v75h75v-86q-2 -35 -11.5 -59t-23.5 -41.5t-32 -28.5t-36 -18zM66 -120q-8 14 -16.5 27t-17.5 27q29 16 45.5 38.5t16.5 65.5v75h75v-86q-2 -35 -11.5 -59t-23.5 -41.5t-32 -28.5t-36 -18z" />
    <glyph glyph-name="dagger" unicode="&#x2020;" horiz-adv-x="390" 
d="M235 666v-116h121v-67h-121v-239h-79v239h-122v67h122v116h79z" />
    <glyph glyph-name="daggerdbl" unicode="&#x2021;" horiz-adv-x="390" 
d="M234 556h122v-67h-122v-69h122v-67h-122v-109h-79v109h-121v67h121v69h-121v67h121v110h79v-110z" />
    <glyph glyph-name="bullet" unicode="&#x2022;" horiz-adv-x="266" 
d="M50 245q0 35 23.5 55t58.5 20t59 -20t24 -55t-24 -54.5t-59 -19.5t-58.5 19.5t-23.5 54.5z" />
    <glyph glyph-name="ellipsis" unicode="&#x2026;" horiz-adv-x="613" 
d="M251 43q0 26 16 39t40 13q23 0 39 -13t16 -39t-16 -39.5t-39 -13.5q-24 0 -40 13.5t-16 39.5zM433 43q0 26 16 39t40 13q23 0 39 -13t16 -39t-16 -39.5t-39 -13.5q-24 0 -40 13.5t-16 39.5zM69 43q0 26 16 39t40 13q23 0 39 -13t16 -39t-16 -39.5t-39 -13.5
q-24 0 -40 13.5t-16 39.5z" />
    <glyph glyph-name="perthousand" unicode="&#x2030;" horiz-adv-x="730" 
d="M591 35q23 0 32 15t9 45v70q0 29 -9 44.5t-32 15.5t-32 -15.5t-9 -44.5v-70q0 -30 9 -45t32 -15zM591 -10q-47 0 -70 28.5t-23 77.5v68q0 49 23 77.5t70 28.5q46 0 69.5 -28.5t23.5 -77.5v-68q0 -49 -23.5 -77.5t-69.5 -28.5zM103 99l-35 31l301 321l39 -32zM139 352
q23 0 32 15t9 45v70q0 29 -9 44.5t-32 15.5t-32 -15.5t-9 -44.5v-70q0 -30 9 -45t32 -15zM139 307q-47 0 -70 28.5t-23 77.5v68q0 49 23 77.5t70 28.5q46 0 69.5 -28.5t23.5 -77.5v-68q0 -49 -23.5 -77.5t-69.5 -28.5zM360 35q23 0 32.5 15t9.5 45v70q0 29 -9.5 44.5
t-32.5 15.5q-22 0 -31.5 -15.5t-9.5 -44.5v-70q0 -60 41 -60zM360 -10q-46 0 -69.5 28.5t-23.5 77.5v68q0 49 23.5 77.5t69.5 28.5q47 0 70.5 -28.5t23.5 -77.5v-68q0 -49 -23.5 -77.5t-70.5 -28.5z" />
    <glyph glyph-name="guilsinglleft" unicode="&#x2039;" horiz-adv-x="248" 
d="M118 244l95 -154h-74l-93 154l93 154h74z" />
    <glyph glyph-name="guilsinglright" unicode="&#x203a;" horiz-adv-x="248" 
d="M35 398h74l93 -154l-93 -154h-74l95 154z" />
    <glyph glyph-name="fraction" unicode="&#x2044;" horiz-adv-x="458" 
d="M67 0h-67l390 666h68z" />
    <glyph glyph-name="Euro" unicode="&#x20ac;" 
d="M45 316h66q0 41 15 73t41 54.5t62.5 34t78.5 11.5q40 0 75.5 -7t66.5 -24l-21 -57q-23 13 -53 20t-61 7q-55 0 -89.5 -30.5t-34.5 -81.5h211l-11 -48h-200v-54h190l-11 -49h-179q0 -30 11 -51.5t29 -35.5t41 -21t47 -7q35 0 61.5 8t50.5 21q5 -14 10 -27t10 -27
q-59 -35 -140 -35h-7q-35 0 -69 10.5t-62 31.5t-45 54t-17 79h-66v49h66v54h-66v48z" />
    <glyph glyph-name="trademark" unicode="&#x2122;" horiz-adv-x="737" 
d="M253 666v-50h-81v-246h-58v246h-82v50h221zM398 666l69 -178l69 178h93l17 -296h-59l-12 239q-17 -44 -34.5 -87.5t-35.5 -87.5h-77l-69 175l-12 -239h-59l18 296h92z" />
    <glyph glyph-name="partialdiff" unicode="&#x2202;" 
d="M149 559q36 13 71 20t85 7q34 0 63 -9t51 -27t34.5 -45t12.5 -63q0 -23 -6 -50l-53 -252q-8 -40 -29 -68.5t-50 -46.5t-64 -26.5t-72 -8.5q-72 0 -115.5 35t-43.5 97v9q0 9 3 18l14 56q20 79 75 112t128 33q32 0 60.5 -8t50.5 -22q5 26 12 54.5t7 50.5q0 47 -28 68.5
t-76 21.5q-36 0 -63 -6t-58 -17zM351 256q-22 12 -50 21t-59 9q-40 0 -72 -18.5t-42 -60.5l-15 -61q-2 -8 -2 -14q0 -38 26.5 -55.5t64.5 -17.5q45 0 81 22.5t47 74.5z" />
    <glyph glyph-name="product" unicode="&#x220f;" horiz-adv-x="689" 
d="M656 666v-74h-71v-592h-81v592h-320v-592h-81v592h-70v74h623z" />
    <glyph glyph-name="summation" unicode="&#x2211;" 
d="M446 666v-74h-320l203 -249l-205 -269h331v-74h-425v73l203 269l-203 250v74h416z" />
    <glyph glyph-name="minus" unicode="&#x2212;" 
d="M40 278h419v-68h-419v68z" />
    <glyph glyph-name="radical" unicode="&#x221a;" 
d="M145 479l104 -419l153 606h80l-177 -666h-113q-27 104 -55 206.5t-55 206.5h-82v66h145z" />
    <glyph glyph-name="infinity" unicode="&#x221e;" 
d="M420 241q0 36 -18 52.5t-41 16.5q-25 0 -49 -18t-35 -51q11 -33 35 -51t49 -18q23 0 41 16.5t18 52.5zM77 241q0 -36 17.5 -52.5t40.5 -16.5q26 0 49.5 18t34.5 51q-10 33 -34 51t-50 18q-23 0 -40.5 -16.5t-17.5 -52.5zM133 367q35 0 65 -17t50 -51q20 34 50.5 51
t65.5 17q23 0 44 -8t37.5 -24t26.5 -39.5t10 -54.5t-10 -55t-26.5 -40t-38 -24t-44.5 -8q-35 0 -65 16.5t-50 50.5q-20 -34 -49.5 -50.5t-64.5 -16.5q-23 0 -44.5 8t-38 24t-26.5 40t-10 55t10 54.5t26.5 39.5t37.5 24t44 8z" />
    <glyph glyph-name="integral" unicode="&#x222b;" horiz-adv-x="306" 
d="M263 724q30 0 54.5 -7.5t34.5 -12.5l-16 -62q-11 4 -27 8.5t-35 4.5q-45 0 -69.5 -25t-24.5 -73v-535q0 -54 -7.5 -93.5t-26.5 -65.5t-51 -38.5t-81 -12.5q-26 2 -50 8t-32 11q3 17 7 32.5t7 31.5q11 -4 32 -9t39 -5q47 0 66.5 25t19.5 73v578q0 81 41 124t119 43z" />
    <glyph glyph-name="approxequal" unicode="&#x2248;" 
d="M148 331q-25 0 -40.5 -14.5t-23.5 -34.5l-47 26q5 38 34.5 64t71.5 26q22 0 47 -7.5t51 -17t51.5 -17t48.5 -7.5q25 0 44 12t30 42l47 -27q-16 -42 -45.5 -66.5t-71.5 -24.5q-26 0 -54 7t-54 16t-49 16t-40 7zM148 136q-25 0 -40.5 -14.5t-23.5 -34.5l-47 26
q2 19 11 35.5t23 28.5t32.5 19t39.5 7q22 0 47 -7.5t51 -17t51.5 -17t48.5 -7.5q25 0 44 11.5t30 41.5l47 -27q-16 -42 -45.5 -66.5t-71.5 -24.5q-26 0 -54 7.5t-54 16t-49 16t-40 7.5z" />
    <glyph glyph-name="notequal" unicode="&#x2260;" 
d="M396 479l-45 -96h108v-68h-140l-66 -142h206v-68h-237l-50 -105h-70l49 105h-111v68h143l66 142h-209v68h240l45 96h71z" />
    <glyph glyph-name="lessequal" unicode="&#x2264;" 
d="M40 331l419 141v-70l-350 -115l350 -114v-70l-419 141v87zM40 68h419v-68h-419v68z" />
    <glyph glyph-name="greaterequal" unicode="&#x2265;" 
d="M459 244l-419 -141v70l350 114l-350 115v70l419 -141v-87zM40 68h419v-68h-419v68z" />
    <glyph glyph-name="lozenge" unicode="&#x25ca;" 
d="M373 333l-122 274l-125 -274l125 -277zM303 666l149 -333l-152 -333h-101l-152 333l149 333h107z" />
    <glyph glyph-name="a_001" horiz-adv-x="480" 
d="M214 58q21 0 40 8t34 19t25.5 23.5t15.5 20.5v265q-21 11 -49 18.5t-54 7.5q-52 0 -78 -30t-26 -81v-139q0 -58 24 -85t68 -27zM407 99q0 -21 7 -28t23 -7q5 0 12 1t13 3q-1 -17 -1 -33.5t-2 -33.5q-23 -6 -47 -6q-26 0 -43 10t-21 33q-9 9 -12 23q-19 -26 -53.5 -48.5
t-92.5 -22.5q-31 0 -57.5 10t-46 30.5t-30.5 51.5t-11 74v166q0 78 49.5 122.5t132.5 44.5q34 0 63 -5.5t51.5 -13.5t39 -16.5t26.5 -14.5v-340z" />
    <glyph glyph-name="y_001" horiz-adv-x="475" 
d="M329 67q-16 -20 -50.5 -39.5t-83.5 -19.5q-32 0 -59.5 10t-47.5 30.5t-31.5 52t-11.5 74.5v304h77v-296q0 -52 23.5 -79t66.5 -27q22 0 41 7t34 17.5t26 22t16 19.5v336h78v-483q0 -92 -45.5 -137.5t-133.5 -45.5q-55 0 -97 13t-65 25q1 4 4 12.5t5.5 18t5 18t4.5 12.5
q9 -4 23 -10t31.5 -11.5t38.5 -9.5t43 -4q108 0 108 119v71z" />
    <glyph glyph-name="ampersand.001" horiz-adv-x="629" 
d="M483 565q-31 16 -77 25.5t-89 9.5q-85 0 -126 -44.5t-41 -120.5v-57h489v-70h-111v-265q-33 -18 -83 -35.5t-131 -17.5q-61 0 -107 17t-77 48t-46.5 74.5t-15.5 97.5v211q0 108 61.5 172.5t183.5 64.5q47 0 100 -10.5t91 -29.5zM150 308v-79q0 -75 41.5 -120.5
t122.5 -45.5q37 0 72.5 6.5t60.5 20.5v218h-297z" />
    <glyph glyph-name="apple" horiz-adv-x="0" 
 />
    </font>
</defs>
</svg>
